<?xml version="1.0" encoding="UTF-8" standalone="no"?>
<svg
   xmlns:dc="http://purl.org/dc/elements/1.1/"
   xmlns:cc="http://creativecommons.org/ns#"
   xmlns:rdf="http://www.w3.org/1999/02/22-rdf-syntax-ns#"
   xmlns:svg="http://www.w3.org/2000/svg"
   xmlns="http://www.w3.org/2000/svg"
   version="1.1"
   id="svg2"
   xml:space="preserve"
   width="48.368"
   height="54.872532"
   viewBox="0 0 48.368 54.872532"><metadata
     id="metadata8"><rdf:RDF><cc:Work
         rdf:about=""><dc:format>image/svg+xml</dc:format><dc:type
           rdf:resource="http://purl.org/dc/dcmitype/StillImage" /><dc:title></dc:title></cc:Work></rdf:RDF></metadata><defs
     id="defs6"><clipPath
       clipPathUnits="userSpaceOnUse"
       id="clipPath18"><path
         d="M 0,52 H 410.995 V 0 H 0 Z"
         id="path16" /></clipPath></defs><g
     id="g10"
     transform="matrix(1.3333333,0,0,-1.3333333,-10.7712,63.111732)"><g
       id="g120"
       transform="translate(30.1357,29.502)"><path
         d="m 0,0 c -0.104,0.166 -0.364,0.373 -0.393,0.406 -0.039,0.044 0.065,0.2 0.114,0.343 C -0.23,0.891 -0.271,1.345 -0.37,1.446 -0.468,1.547 -0.658,1.173 -0.731,1.236 -0.786,1.284 -0.822,1.573 -0.855,1.657 -0.918,1.812 -0.999,1.931 -1.084,1.911 -1.135,1.899 -1.237,1.673 -1.323,1.579 -1.369,1.529 -1.375,1.569 -1.525,1.677 -1.719,1.817 -1.739,1.848 -1.8,1.812 -1.862,1.776 -1.782,1.441 -1.811,1.405 -1.841,1.369 -2.469,1.354 -2.91,1.025 -3.88,0.301 -4.478,-0.677 -4.607,-1.883 c -0.044,-0.409 -0.006,-0.819 -0.018,-1.228 0,-0.026 -0.001,-0.051 -0.013,-0.073 -0.061,-0.127 -0.28,0.08 -0.346,0.118 -0.139,0.077 -0.282,0.151 -0.436,0.193 -0.373,0.101 -0.766,0.092 -1.14,0.003 -0.247,-0.058 -0.489,-0.15 -0.743,-0.15 -0.398,-10e-4 -0.6,0.276 -0.695,0.631 -0.136,0.515 -0.186,1.048 -0.332,1.562 -0.052,0.183 -0.127,0.409 -0.324,0.478 -0.187,0.065 -0.195,-0.331 -0.362,-0.434 -0.055,-0.034 -1.144,-0.568 -1.005,-2.696 0.039,-0.607 0.185,-1.367 0.361,-1.932 0.151,-0.487 0.074,-0.425 0.274,-0.894 0.273,-0.638 0.625,-1.253 1.105,-1.76 0.004,-0.005 0.009,-0.01 0.014,-0.015 0.56,-0.588 1.28,-0.95 2.078,-1.085 0.53,-0.09 1.067,-0.085 1.603,-0.096 1.739,-0.035 3.093,0.892 3.813,1.889 0.838,1.161 0.84,2.895 0.263,4.111 -0.3,0.729 -0.776,1.57 -0.869,1.848 -0.017,0.053 -0.036,0.109 -0.053,0.171 -0.025,0.084 0.039,0.164 0.127,0.167 0.052,10e-4 0.109,0.008 0.173,0.023 0.298,0.072 0.299,0.373 0.248,0.615 -0.033,0.154 0.101,0.291 0.256,0.269 0.072,-0.011 0.134,-0.02 0.163,-0.025 0.194,-0.035 0.425,-0.082 0.477,0.005 C 0.049,-0.126 0.038,-0.059 0,0"
         style="fill:#117533;fill-opacity:1;fill-rule:evenodd;stroke:none"
         id="path122" /></g><g
       id="g124"
       transform="translate(29.3525,30.6924)"><path
         d="M 0,0 Z M 0.367,-1.451 V -1.452 Z M -0.51,-2.758 Z m -7.45,0.374 C -7.964,-2.386 -7.968,-2.389 -7.972,-2.391 -7.978,-2.395 -7.987,-2.4 -8,-2.407 c -0.144,-0.082 -0.855,-0.572 -0.748,-2.231 0.037,-0.555 0.17,-1.269 0.341,-1.818 0.066,-0.213 0.094,-0.337 0.114,-0.427 0.026,-0.115 0.04,-0.179 0.143,-0.419 0.288,-0.673 0.618,-1.202 1.009,-1.616 l 0.017,-0.018 c 0.467,-0.49 1.091,-0.814 1.8,-0.934 0.421,-0.071 0.854,-0.078 1.312,-0.086 l 0.22,-0.004 c 1.592,-0.032 2.8,0.85 3.404,1.686 0.765,1.059 0.688,2.619 0.217,3.612 l -0.011,0.023 c -0.156,0.38 -0.369,0.805 -0.54,1.147 -0.183,0.366 -0.289,0.58 -0.34,0.733 -0.02,0.057 -0.04,0.12 -0.059,0.188 -0.055,0.187 -0.02,0.383 0.095,0.54 0.106,0.145 0.273,0.239 0.452,0.255 -0.002,0.013 -0.005,0.029 -0.008,0.047 -0.049,0.228 0.018,0.466 0.178,0.637 0.086,0.091 0.193,0.157 0.309,0.195 -0.044,0.17 0.012,0.337 0.062,0.452 -0.115,0.024 -0.198,0.085 -0.238,0.119 -0.074,0.065 -0.122,0.141 -0.157,0.224 -0.068,-0.021 -0.147,-0.03 -0.235,-0.013 -0.122,-0.136 -0.27,-0.161 -0.414,-0.185 -0.183,-0.031 -0.525,-0.087 -0.755,-0.26 -0.886,-0.661 -1.391,-1.524 -1.503,-2.566 -0.024,-0.223 -0.02,-0.453 -0.016,-0.698 0.003,-0.16 0.006,-0.325 10e-4,-0.493 -0.002,-0.046 -0.004,-0.155 -0.062,-0.273 -0.074,-0.152 -0.209,-0.262 -0.37,-0.301 -0.29,-0.071 -0.527,0.104 -0.654,0.198 -0.006,0.006 -0.013,0.01 -0.019,0.014 -0.102,0.057 -0.21,0.114 -0.311,0.141 -0.273,0.073 -0.584,0.073 -0.898,-10e-4 -0.06,-0.014 -0.121,-0.03 -0.181,-0.047 -0.198,-0.055 -0.423,-0.116 -0.674,-0.116 h -0.002 c -0.574,0 -1,0.363 -1.169,0.997 -0.07,0.264 -0.118,0.526 -0.164,0.78 -0.034,0.188 -0.067,0.366 -0.106,0.541 m 4.251,-8.56 c -0.035,0 -0.069,0 -0.104,0.001 l -0.215,0.004 c -0.474,0.007 -0.965,0.015 -1.46,0.099 -0.92,0.155 -1.733,0.58 -2.352,1.23 l -0.014,0.014 c -0.475,0.503 -0.867,1.126 -1.201,1.908 -0.131,0.307 -0.161,0.424 -0.198,0.589 -0.018,0.082 -0.039,0.176 -0.094,0.351 -0.191,0.617 -0.341,1.42 -0.382,2.047 -0.035,0.543 -0.052,2.35 1.178,3.11 0.007,0.016 0.014,0.033 0.02,0.048 0.255,0.592 0.659,0.524 0.821,0.469 0.452,-0.157 0.582,-0.614 0.637,-0.81 0.083,-0.292 0.136,-0.583 0.187,-0.864 0.045,-0.246 0.087,-0.479 0.147,-0.705 0.071,-0.266 0.153,-0.265 0.219,-0.266 0.12,0 0.263,0.04 0.415,0.081 0.072,0.02 0.144,0.039 0.215,0.057 0.473,0.111 0.95,0.108 1.381,-0.008 0.06,-0.015 0.117,-0.035 0.172,-0.056 -0.002,0.203 10e-4,0.411 0.024,0.624 0.14,1.306 0.794,2.43 1.893,3.25 0.294,0.219 0.632,0.328 0.894,0.387 0.016,0.158 0.079,0.325 0.263,0.431 0.235,0.138 0.435,0.078 0.582,-0.004 0.067,0.071 0.151,0.129 0.267,0.156 0.148,0.035 0.501,0.056 0.747,-0.436 0.014,0.002 0.028,0.002 0.042,0.002 0.148,0 0.287,-0.059 0.391,-0.166 0.268,-0.275 0.292,-0.943 0.203,-1.2 C 0.965,-0.613 0.961,-0.625 0.957,-0.638 1.043,-0.724 1.135,-0.825 1.2,-0.929 1.339,-1.15 1.346,-1.412 1.219,-1.629 1.033,-1.944 0.682,-1.937 0.414,-1.898 0.396,-2.286 0.195,-2.527 -0.041,-2.649 c 0.055,-0.116 0.127,-0.26 0.199,-0.402 0.176,-0.353 0.396,-0.792 0.565,-1.202 0.699,-1.483 0.57,-3.372 -0.314,-4.598 -0.951,-1.316 -2.484,-2.093 -4.118,-2.093"
         style="fill:#3a3a3a;fill-opacity:1;fill-rule:nonzero;stroke:none"
         id="path126" /></g><g
       id="g128"
       transform="translate(39.7051,30.2373)"><path
         d="m 0,0 c -0.144,-0.535 -0.379,-0.535 -0.523,0 -0.144,0.535 -0.707,1.098 -1.25,1.25 -0.544,0.152 -0.544,0.402 0,0.554 0.543,0.153 1.106,0.715 1.25,1.25 0.144,0.535 0.379,0.535 0.523,0 C 0.144,2.519 0.706,1.957 1.25,1.804 1.793,1.652 1.793,1.402 1.25,1.25 0.706,1.098 0.144,0.535 0,0"
         style="fill:#f39719;fill-opacity:1;fill-rule:evenodd;stroke:none"
         id="path130" /></g><g
       id="g132"
       transform="translate(10.7515,33.4966)"><path
         d="m 0,0 c -0.144,-0.535 -0.379,-0.535 -0.523,0 -0.144,0.535 -0.706,1.098 -1.25,1.25 -0.544,0.153 -0.544,0.402 0,0.554 0.544,0.153 1.106,0.715 1.25,1.25 0.144,0.535 0.379,0.535 0.523,0 C 0.144,2.519 0.706,1.957 1.25,1.804 1.793,1.652 1.793,1.402 1.25,1.25 0.706,1.098 0.144,0.535 0,0"
         style="fill:#f39719;fill-opacity:1;fill-rule:evenodd;stroke:none"
         id="path134" /></g><g
       id="g136"
       transform="translate(40.0835,42.458)"><path
         d="m 0,0 c -0.144,-0.535 -0.379,-0.535 -0.523,0 -0.144,0.535 -0.706,1.098 -1.25,1.25 -0.544,0.153 -0.544,0.402 0,0.554 0.544,0.153 1.106,0.715 1.25,1.25 0.144,0.535 0.379,0.535 0.523,0 C 0.144,2.519 0.707,1.957 1.25,1.804 1.794,1.652 1.794,1.403 1.25,1.25 0.707,1.098 0.144,0.535 0,0"
         style="fill:#f39719;fill-opacity:1;fill-rule:evenodd;stroke:none"
         id="path138" /></g><g
       id="g140"
       transform="translate(42.2051,36.8975)"><path
         d="m 0,0 c -0.144,-0.535 -0.379,-0.535 -0.523,0 -0.144,0.535 -0.706,1.098 -1.25,1.25 -0.544,0.152 -0.544,0.402 0,0.554 0.544,0.153 1.106,0.715 1.25,1.25 0.144,0.535 0.379,0.535 0.523,0 C 0.144,2.519 0.707,1.957 1.25,1.804 1.793,1.651 1.793,1.402 1.25,1.25 0.707,1.098 0.144,0.535 0,0"
         style="fill:#f39719;fill-opacity:1;fill-rule:evenodd;stroke:none"
         id="path142" /></g><path
       d="m 27.578,40.612 h -4.873 v 0.983 h 4.873 z"
       style="fill:#3a3a3a;fill-opacity:1;fill-rule:nonzero;stroke:none"
       id="path144" /><g
       id="g146"
       transform="translate(15.4131,42.9214)"><path
         d="m 0,0 c -0.029,0 -0.053,-0.024 -0.053,-0.053 v -35.652 c 0,-0.029 0.024,-0.053 0.053,-0.053 h 19.458 c 0.029,0 0.053,0.024 0.053,0.053 V -0.053 C 19.511,-0.024 19.487,0 19.458,0 Z M 19.458,-36.742 H 0 c -0.572,0 -1.037,0.465 -1.037,1.037 v 35.652 c 0,0.572 0.465,1.037 1.037,1.037 h 19.458 c 0.572,0 1.037,-0.465 1.037,-1.037 v -35.652 c 0,-0.572 -0.465,-1.037 -1.037,-1.037"
         style="fill:#3a3a3a;fill-opacity:1;fill-rule:nonzero;stroke:none"
         id="path148" /></g><g
       id="g150"
       transform="translate(25.1421,10.418)"><path
         d="m 0,0 c -0.416,0 -0.753,-0.338 -0.753,-0.753 0,-0.415 0.337,-0.753 0.753,-0.753 0.416,0 0.753,0.338 0.753,0.753 C 0.753,-0.338 0.416,0 0,0 m 0,-2.49 c -0.958,0 -1.737,0.779 -1.737,1.737 0,0.958 0.779,1.737 1.737,1.737 0.958,0 1.737,-0.779 1.737,-1.737 C 1.737,-1.711 0.958,-2.49 0,-2.49"
         style="fill:#3a3a3a;fill-opacity:1;fill-rule:nonzero;stroke:none"
         id="path152" /></g><path
       d="M 17.303,13.436 H 32.981 V 38.603 H 17.303 Z M 33.964,12.451 H 16.319 v 27.134 h 17.645 z"
       style="fill:#3a3a3a;fill-opacity:1;fill-rule:nonzero;stroke:none"
       id="path154" /><g
       id="g156"
       transform="translate(38.521,31.7646)"><path
         d="M 0,0 C 0.369,-0.214 0.704,-0.544 0.922,-0.909 1.141,-0.544 1.476,-0.214 1.845,0 1.476,0.214 1.141,0.544 0.922,0.909 0.704,0.544 0.369,0.214 0,0 m 1.192,-1.556 z m -0.27,-0.865 c -0.242,0 -0.566,0.133 -0.736,0.766 -0.099,0.368 -0.532,0.799 -0.908,0.904 -0.634,0.178 -0.767,0.506 -0.767,0.751 0,0.244 0.133,0.573 0.767,0.75 0.376,0.106 0.809,0.537 0.908,0.905 C 0.356,2.287 0.68,2.42 0.922,2.42 1.165,2.42 1.489,2.287 1.659,1.654 1.758,1.287 2.19,0.856 2.566,0.75 3.201,0.573 3.333,0.244 3.333,0 3.333,-0.245 3.201,-0.573 2.567,-0.751 2.19,-0.856 1.758,-1.287 1.659,-1.655 v 0 C 1.489,-2.288 1.165,-2.421 0.922,-2.421"
         style="fill:#3a3a3a;fill-opacity:1;fill-rule:nonzero;stroke:none"
         id="path158" /></g><g
       id="g160"
       transform="translate(9.5674,35.0239)"><path
         d="M 0,0 C 0.369,-0.214 0.704,-0.544 0.922,-0.909 1.141,-0.544 1.476,-0.214 1.845,0 1.476,0.214 1.141,0.544 0.922,0.909 0.704,0.544 0.369,0.214 0,0 M 1.192,-1.556 Z M 0.922,-2.42 c -0.242,0 -0.566,0.132 -0.736,0.765 -0.099,0.368 -0.532,0.799 -0.908,0.905 -0.634,0.177 -0.767,0.505 -0.767,0.75 0,0.244 0.133,0.573 0.767,0.75 0.376,0.106 0.809,0.537 0.908,0.905 C 0.356,2.288 0.68,2.42 0.922,2.42 1.165,2.42 1.489,2.288 1.659,1.655 1.758,1.287 2.19,0.856 2.567,0.75 3.201,0.573 3.333,0.244 3.333,0 3.333,-0.245 3.201,-0.573 2.567,-0.75 2.19,-0.856 1.758,-1.287 1.659,-1.655 1.489,-2.288 1.165,-2.42 0.922,-2.42"
         style="fill:#3a3a3a;fill-opacity:1;fill-rule:nonzero;stroke:none"
         id="path162" /></g><g
       id="g164"
       transform="translate(38.8994,43.9854)"><path
         d="M 0,0 C 0.369,-0.214 0.704,-0.544 0.922,-0.909 1.141,-0.544 1.476,-0.214 1.845,0 1.476,0.214 1.141,0.544 0.922,0.909 0.704,0.544 0.369,0.214 0,0 m 0.652,-1.556 z m 0.27,-0.864 v 0 c -0.241,0 -0.566,0.132 -0.736,0.765 -0.099,0.368 -0.532,0.799 -0.908,0.905 -0.633,0.177 -0.767,0.505 -0.767,0.75 0,0.244 0.134,0.573 0.767,0.75 0.376,0.106 0.809,0.537 0.908,0.905 C 0.356,2.288 0.681,2.42 0.922,2.42 1.165,2.42 1.489,2.288 1.659,1.655 1.758,1.287 2.19,0.856 2.567,0.75 3.201,0.573 3.334,0.244 3.334,0 3.334,-0.245 3.201,-0.573 2.567,-0.75 2.19,-0.856 1.758,-1.287 1.659,-1.655 1.489,-2.288 1.165,-2.42 0.922,-2.42"
         style="fill:#3a3a3a;fill-opacity:1;fill-rule:nonzero;stroke:none"
         id="path166" /></g><g
       id="g168"
       transform="translate(42.2134,39.98)"><path
         d="m 0,0 z m -1.192,-1.556 c 0.369,-0.214 0.703,-0.544 0.922,-0.908 0.219,0.364 0.553,0.694 0.922,0.908 -0.369,0.215 -0.703,0.545 -0.922,0.909 -0.219,-0.364 -0.553,-0.694 -0.922,-0.909 m 0.922,-2.42 c -0.242,0 -0.566,0.133 -0.736,0.766 -0.099,0.367 -0.532,0.798 -0.909,0.904 -0.633,0.178 -0.766,0.506 -0.766,0.75 0,0.245 0.133,0.574 0.766,0.751 0.377,0.106 0.81,0.536 0.909,0.904 0.17,0.633 0.494,0.766 0.736,0.766 0.242,0 0.566,-0.133 0.737,-0.766 C 0.565,-0.269 0.998,-0.7 1.375,-0.805 2.008,-0.982 2.141,-1.311 2.141,-1.556 2.141,-1.8 2.008,-2.128 1.375,-2.306 0.998,-2.412 0.565,-2.843 0.467,-3.21 0.296,-3.843 -0.028,-3.976 -0.27,-3.976"
         style="fill:#3a3a3a;fill-opacity:1;fill-rule:nonzero;stroke:none"
         id="path170" /></g><g
       id="g172"
       transform="translate(15.3364,44.3188)"><path
         d="M 0,0 -0.496,0.849 1.06,1.758 1.556,0.909 Z"
         style="fill:#3a3a3a;fill-opacity:1;fill-rule:nonzero;stroke:none"
         id="path174" /></g><g
       id="g176"
       transform="translate(11.0864,41.8369)"><path
         d="M 0,0 -0.496,0.85 1.06,1.758 1.556,0.909 Z"
         style="fill:#3a3a3a;fill-opacity:1;fill-rule:nonzero;stroke:none"
         id="path178" /></g><g
       id="g180"
       transform="translate(12.1074,43.8774)"><path
         d="M 0,0 -1.743,0.458 -1.493,1.409 0.25,0.951 Z"
         style="fill:#3a3a3a;fill-opacity:1;fill-rule:nonzero;stroke:none"
         id="path182" /></g><g
       id="g184"
       transform="translate(12.5298,45.0557)"><path
         d="M 0,0 -0.909,1.556 -0.059,2.052 0.85,0.496 Z"
         style="fill:#3a3a3a;fill-opacity:1;fill-rule:nonzero;stroke:none"
         id="path186" /></g><g
       id="g188"
       transform="translate(13.3628,40.5801)"><path
         d="m 0,0 -0.951,0.25 0.457,1.743 0.952,-0.25 z"
         style="fill:#3a3a3a;fill-opacity:1;fill-rule:nonzero;stroke:none"
         id="path190" /></g><g
       id="g192"
       transform="translate(14.6133,45.3408)"><path
         d="m 0,0 -0.951,0.25 0.457,1.743 0.952,-0.25 z"
         style="fill:#3a3a3a;fill-opacity:1;fill-rule:nonzero;stroke:none"
         id="path194" /></g><g
       id="g196"
       transform="translate(33.4053,13.2031)"><path
         d="M 0,0 -0.633,-0.297 H -15.685 L -16.513,0 v 25.683 l 2.214,0.199 L -0.304,25.683 0,24.861 Z m 1.519,30.111 -17.341,0.281 -2.743,-0.281 V -6.043 l 1.026,-0.417 h 18.65 l 0.785,0.417 v 34.998 z"
         style="fill:#3a3a3a;fill-opacity:1;fill-rule:nonzero;stroke:none"
         id="path198" /></g><g
       id="g200"
       transform="translate(33.4053,13.2031)"><path
         d="M 0,0 -0.633,-0.297 H -15.685 L -16.513,0 v 25.683 l 2.214,0.199 L -0.304,25.683 0,24.861 Z m 1.519,30.111 -17.341,0.281 -2.743,-0.281 V -6.043 l 1.026,-0.417 h 18.65 l 0.785,0.417 v 34.998 z"
         style="fill:#3a3a3a;fill-opacity:1;fill-rule:nonzero;stroke:none"
         id="path202" /></g><path
       d="m 27.578,40.612 h -4.873 v 0.983 h 4.873 z"
       style="fill:#ffffff;fill-opacity:1;fill-rule:nonzero;stroke:none"
       id="path204" /><g
       id="g206"
       transform="translate(25.1421,10.418)"><path
         d="m 0,0 c -0.416,0 -0.753,-0.338 -0.753,-0.753 0,-0.415 0.337,-0.753 0.753,-0.753 0.416,0 0.753,0.338 0.753,0.753 C 0.753,-0.338 0.416,0 0,0 m 0,-2.49 c -0.958,0 -1.737,0.779 -1.737,1.737 0,0.958 0.779,1.737 1.737,1.737 0.958,0 1.737,-0.779 1.737,-1.737 C 1.737,-1.711 0.958,-2.49 0,-2.49"
         style="fill:#ffffff;fill-opacity:1;fill-rule:nonzero;stroke:none"
         id="path208" /></g></g></svg>
