<svg version="1.1" id="farmyIcon4Svg" xmlns="http://www.w3.org/2000/svg" xmlns:xlink="http://www.w3.org/1999/xlink" x="0px" y="0px" width="300.41px" height="230.19px" viewBox="0 0 395.41 306.19" enable-background="new 0 0 395.41 306.19" xml:space="preserve" style="opacity: 1;">
    <g id="gCarAll" style="transform-origin: 0px 0px 0px;" data-svg-origin="243.2959980010986 153.22000122070312" transform="matrix(0.99998,-0.00681,0.00681,0.99998,-1.03856,1.65991)">
        <g style="transform-origin: 0px 0px 0px;" data-svg-origin="-20.440000534057617 33" transform="matrix(1,0,0,1,8.8572,0)">
            <rect x="-20.44" y="33" fill="none" width="439.56" height="240.44"></rect>
            <ellipse id="gCarTini" opacity="0.35" fill="#493A29" cx="230.38" cy="239.02" rx="88.47" ry="7.8"></ellipse>
            <g id="gCar">
                <g>
                    <g>
                        <path fill="#9B928A" d="M148.1,215.92c0.62,0.17,1.28-0.14,1.53-0.74c2.98-6.97,9.9-11.86,17.96-11.86
                            c9.9,0,18.08,7.37,19.35,16.92c0.09,0.64,0.63,1.12,1.28,1.12h1.25c0.78,0,1.38-0.68,1.28-1.45
                            c-1.44-11.51-11.26-20.42-23.17-20.42c-9.7,0-18.02,5.92-21.55,14.34c-0.3,0.72,0.09,1.55,0.85,1.75L148.1,215.92z"></path>
                        <path fill="#9B928A" d="M231.28,221.37h-37.04c-1.05,0-1.91-0.85-1.91-1.91v-21.43h40.85v21.43
                            C233.19,220.52,232.33,221.37,231.28,221.37z"></path>
                        <path fill="#107433" d="M348.09,193.86l1.3-1.3c0.53-0.53,0.83-1.25,0.83-2v-9.26c0-0.98-0.51-1.9-1.35-2.41l-7.7-4.72
                            c0,0,0.4-49.72-45.61-49.72h-29.42v73.58h22.76c6.34,0,20.81,4.51,22.03,19.82c0.09,1.19,1.1,2.1,2.29,2.1h24.18
                            c0,0,9.53-1.99,11.04-2.6c1.51-0.62,2.12-1.1,2.12-3.43s0-16.45,0-16.45S351.04,195.3,348.09,193.86z M336.12,213.98h-21.11
                            c-4.2-17.09-15.53-20.22-23.48-20.22c-7.96,0-14,0-14,0v-64.71l18.11,0.07c30.08,0,40.48,32.16,40.48,43.77
                            S336.12,213.98,336.12,213.98z"></path>
                        <path fill="#9B928A" d="M262.06,221.8h-24.11c-1.27,0-2.29-1.03-2.29-2.29v-21.04h28.7v21.04
                            C264.35,220.77,263.32,221.8,262.06,221.8z"></path>
                        <path fill="#9B928A" d="M189.83,215.71v-17.96h-49.97v6.47c0,2.36,1.61,4.41,3.9,4.97l4.08,1.43c0,0,5.88-8.56,20.51-8.56
                            C182.98,202.06,189.83,215.71,189.83,215.71z"></path>
                        <path opacity="0.45" fill="#C1E2E3" d="M277.52,129.05v64.71c0,0,6.05,0,14,0c7.96,0,19.28,3.13,23.48,20.22h21.11
                            c0,0,0-29.49,0-41.1s-10.4-43.77-40.48-43.77L277.52,129.05z"></path>
                        <path fill="#766B5F" d="M302.54,167.44L302.54,167.44c-0.3-0.52-0.12-1.17,0.4-1.47l13.8-7.9c0.52-0.3,1.17-0.12,1.47,0.4l0,0
                            c0.3,0.52,0.12,1.17-0.4,1.47l-13.8,7.9C303.49,168.13,302.84,167.95,302.54,167.44z"></path>
                        <polyline fill="#9B928A" points="307.46,165.86 312.04,169.77 313.63,172.21 319.97,172.21 316.64,167.71 314.98,161.56
                            "></polyline>
                        <path opacity="0.45" fill="#C1E2E3" d="M334.41,174.1h-54.83v21.62c0,0,18.59-4.27,25.69,3.29s8.44,16.92,8.44,16.92h21.17
                            L334.41,174.1z"></path>
                        <path fill="#FFFFFF" d="M336.11,172.21h-58.59v21.55c0,0,6.05,0,14,0c7.96,0,19.28,3.13,23.48,20.22h21.11c0,0,0-29.49,0-41.1
                            C336.12,172.67,336.11,172.44,336.11,172.21z M333.37,211.36h-16.05c0,0-2.44-10.56-9.67-15.91
                            c-7.23-5.35-27.23-4.46-27.23-4.46v-13.47c0-0.94,0.82-1.67,1.76-1.55l24.37,3.05c0.49,0.06,0.91,0.35,1.16,0.77l4.35,7.53
                            c0.21,0.37,0.57,0.63,0.98,0.74l19.14,4.71c0.7,0.17,1.19,0.8,1.19,1.52V211.36z"></path>
                        <path fill="#897F74" d="M235.65,201.45c14.38,0.31,24.79,0.72,28.3,0.86v-4.28h-28.3V201.45z"></path>
                        <path fill="#897F74" d="M139.86,202.15c9.13-0.32,27.94-0.9,49.97-1.05v-3.35h-49.97V202.15z"></path>
                        <path fill="#F5D59C" d="M350.22,182.11c0,0-3.95,0.07-3.95,4.22c0,4.16,3.95,3.88,3.95,3.88"></path>
                        <path fill="#897F74" d="M192.34,201.08c2.67-0.01,5.38-0.02,8.12-0.02c11.97,0,23.15,0.14,32.73,0.34v-3.36h-40.85V201.08z"></path>
                        <path fill="#EBB166" d="M141.08,204.37h-1.22v-6.62h5.68v2.16C145.54,202.38,143.54,204.37,141.08,204.37z"></path>
                        <path fill="#F28F41" d="M145.54,198.18h-0.21l-0.47,0.29c-0.49,4.18-5,4.11-5,4.11v2.22h2.13c1.96,0,3.55-1.59,3.55-3.55
                            V198.18z"></path>
                        <path fill="#9B928A" d="M310.93,217.86c0.09,1.19,1.1,2.1,2.29,2.1h24.18c0,0,9.53-1.99,11.04-2.6
                            c1.51-0.62,2.12-1.1,2.12-3.43s0-16.45,0-16.45s0.48-2.18-2.47-3.62h-11.98v20.12h-21.05c-0.04,0-0.07-0.03-0.08-0.06
                            c-3.79-15.34-13.33-19.4-21-20.06h-27.85v4.18h22.76C295.24,198.04,309.71,202.55,310.93,217.86z"></path>
                        <path fill="#897F74" d="M348.44,217.36c1.51-0.62,2.12-1.1,2.12-3.43c0-1.05,0-4.5,0-7.97c-0.78,6.34-5.34,9.8-14.44,10.78
                            c-6.66,0.72-15.63,0.4-20.09,0.17c-1.51-0.08-2.76-1.18-3.04-2.67c-0.54-2.87-2.11-7.71-6.75-11.93
                            c-7.12-6.48-16.12-6.4-16.12-6.4h-23.98v2.12h22.76c6.34,0,20.81,4.51,22.03,19.82c0.09,1.19,1.1,2.1,2.29,2.1h24.18
                            C337.4,219.96,346.93,217.98,348.44,217.36z"></path>
                        <path opacity="0.75" fill="#FFFFFF" d="M350.22,183.41c0,0-2.53,0.12-2.53,1.82c0,1.41,0.89,1.82,2.53,1.82V183.41z"></path>
                        <path fill="#A7C47A" d="M348.87,178.9l-7.7-4.72c0,0,0.4-49.72-45.61-49.72l-29.42-0.3v0.96c3.61,0,11.41,0.12,23.75,0.12
                            c14.05,0,30.23,5.54,37.17,14.6c12.22,15.96,12.09,29.29,12,33.99c-0.02,1.12,0.67,2.13,1.72,2.51c2.2,0.79,6,2.42,9.44,5.15
                            v-0.19C350.22,180.33,349.71,179.41,348.87,178.9z"></path>
                        <path fill="#FFFFFF" d="M303.06,133.27c0.63-1.38,7.49,0.76,12.82,5.63c5.32,4.87,9.15,11.05,7.51,11.89
                            c-1.22,0.63-5.09-5.49-10.13-9.76C307.66,136.28,302.51,134.46,303.06,133.27z"></path>
                        <path fill="#9B928A" d="M333.01,177.98h-9.22c-0.27,0-0.48,0.22-0.48,0.48l0,0c0,0.22,0.14,0.41,0.35,0.47l8.97,2.5
                            c0.89,0.25,1.78-0.42,1.78-1.35v-0.7C334.41,178.61,333.78,177.98,333.01,177.98z"></path>
                        <path fill="#897F74" d="M323.49,178.09c-0.11,0.09-0.18,0.23-0.18,0.38c0,0.22,0.14,0.41,0.35,0.47l8.97,2.5
                            c0.89,0.25,1.78-0.42,1.78-1.35v-0.44C329.96,179.77,325.51,178.67,323.49,178.09z"></path>
                        <path fill="#9B928A" d="M266.14,198.04v21.43c0,1.05,0.85,1.9,1.9,1.9h0.3c0.95,0,1.76-0.71,1.89-1.65
                            c0.79-5.78,5.5-16.17,17.08-16.2c0.87,0,1.59-0.72,1.59-1.59v-3.89H266.14z"></path>
                        <g>
                            <path fill="#897F74" d="M259.52,220.16h-18.65c-2.67,0-4.83-2.16-4.83-4.83v4.52c0,1,0.81,1.81,1.81,1.81h24.68
                                c1,0,1.81-0.81,1.81-1.81v-4.52C264.35,218,262.19,220.16,259.52,220.16z"></path>
                            <path fill="#897F74" d="M235.65,198.04v1.51c0-0.55,0.15-1.06,0.4-1.51H235.65z"></path>
                            <path fill="#897F74" d="M263.55,198.04c0.26,0.44,0.4,0.96,0.4,1.51v-1.51H263.55z"></path>
                        </g>
                        <g>
                            <path fill="#897F74" d="M232.85,198.04c0.22,0.4,0.34,0.86,0.34,1.35v-1.35H232.85z"></path>
                            <path fill="#897F74" d="M192.34,198.04v1.35c0-0.49,0.12-0.95,0.34-1.35H192.34z"></path>
                            <path fill="#897F74" d="M228.81,220.29h-32.1c-2.42,0-4.37-1.96-4.37-4.37v4.36c0,0.84,0.68,1.52,1.52,1.52h37.81
                                c0.84,0,1.52-0.68,1.52-1.52v-4.36C233.19,218.33,231.23,220.29,228.81,220.29z"></path>
                        </g>
                        <path fill="#897F74" d="M188.32,218.77c-0.47-1.45-4.74-16.62-20.25-16.62c-15.51,0-18.51,11.73-19.98,12.4
                            c-1.47,0.67-1.78-1.32-1.78-1.33c-0.09,0.21-0.18,0.41-0.27,0.62c-0.3,0.72,0.09,1.55,0.85,1.75l1.21,0.33
                            c0.62,0.17,1.28-0.14,1.53-0.74c2.98-6.97,9.9-11.86,17.96-11.86c9.9,0,18.08,7.37,19.35,16.92c0.09,0.64,0.63,1.12,1.28,1.12
                            h1.25c0.7,0,1.25-0.55,1.29-1.22C189.78,220.55,188.72,220,188.32,218.77z"></path>
                        <path fill="#897F74" d="M268.04,221.37h0.3c0.95,0,1.76-0.71,1.89-1.65c0.79-5.78,5.5-16.17,17.08-16.2
                            c0.72,0,1.33-0.49,1.52-1.15c-1.14,0.1-2.42,0.18-3.85,0.24c-13.21,0.53-15.28,12.81-15.88,15.75s-2.97,0.8-2.97,0.8v0.32
                            C266.14,220.52,266.99,221.37,268.04,221.37z"></path>
                        <path fill="#49392A" d="M231.67,221.98c-5.17-0.02-10.33,0.19-15.5,0.35c-5.17,0.2-10.33,0.21-15.5,0.14
                            c-1.29,0-2.58-0.05-3.88-0.08l-1.94-0.05l-0.97-0.02c-0.42,0-0.86-0.14-1.2-0.4c-0.35-0.25-0.6-0.62-0.72-1.03
                            c-0.06-0.2-0.09-0.42-0.08-0.62l0.01-0.48l0.05-1.94l0.08-3.88c0.11-5.17,0.12-10.33-0.09-15.5l0,0
                            c-0.01-0.21,0.15-0.39,0.36-0.4l0,0l0.03,0c6.81-0.25,13.62-0.33,20.42-0.35l10.21-0.04c3.4,0.01,6.81-0.03,10.21,0.01l0,0
                            l0.07,0c0.4,0.01,0.72,0.35,0.7,0.75l0,0.02c-0.13,2.02-0.19,4.03-0.28,6.05l-0.17,6.05c-0.07,2.02-0.07,4.03-0.11,6.05
                            l-0.02,3.02c0,0.26,0,0.49-0.01,0.77c-0.02,0.28-0.12,0.56-0.27,0.8C232.8,221.69,232.24,221.98,231.67,221.98z M231.67,221.62
                            c0.45,0,0.88-0.24,1.11-0.62c0.12-0.19,0.19-0.4,0.2-0.62c0.01-0.22,0-0.5,0-0.74l-0.02-3.02c-0.04-2.02-0.04-4.03-0.11-6.05
                            l-0.17-6.05c-0.1-2.02-0.15-4.03-0.28-6.05l0.78,0.78l0,0c-3.4,0.04-6.81,0.01-10.21,0.01l-10.21-0.04
                            c-6.81-0.02-13.62-0.1-20.42-0.35l0.4-0.4l0,0c-0.21,5.17-0.2,10.33-0.09,15.5l0.08,3.88l0.05,1.94l0.01,0.48
                            c0.01,0.12,0.03,0.23,0.06,0.33c0.08,0.21,0.22,0.39,0.4,0.51c0.19,0.12,0.39,0.17,0.62,0.17l0.97-0.02l1.94-0.05
                            c1.29-0.03,2.58-0.07,3.88-0.08c5.17-0.07,10.33-0.06,15.5,0.14C221.34,221.42,226.5,221.64,231.67,221.62z"></path>
                        <path fill="#49392A" d="M262.53,221.99c-4.12-0.02-8.24,0.17-12.36,0.31c-4.12,0.17-8.24,0.2-12.36,0.14l-0.4-0.01
                            c-0.17-0.01-0.35-0.03-0.52-0.07c-0.34-0.08-0.66-0.24-0.92-0.46c-0.54-0.43-0.87-1.1-0.9-1.78l0.08-3.12
                            c0.06-2.06,0.15-4.12,0.18-6.18c0.1-4.12,0.14-8.24-0.05-12.36l0,0c-0.01-0.19,0.13-0.35,0.32-0.36l0,0l0.04,0
                            c4.78-0.2,9.56-0.29,14.35-0.35c4.78-0.06,9.56-0.11,14.35-0.09h0c0.44,0,0.8,0.35,0.8,0.79v0c-0.01,4.06-0.17,8.12-0.32,12.18
                            l-0.2,6.09l-0.06,3.05c0.03,0.52-0.14,1.14-0.53,1.55C263.66,221.75,263.1,222,262.53,221.99z M262.53,221.6
                            c0.93,0.01,1.71-0.86,1.59-1.81l-0.06-3.05l-0.2-6.09c-0.15-4.06-0.31-8.12-0.32-12.18l0.8,0.8h0
                            c-4.78,0.02-9.56-0.03-14.35-0.09c-4.78-0.06-9.56-0.15-14.35-0.35l0.36-0.36l0,0c-0.19,4.12-0.15,8.24-0.05,12.36
                            c0.03,2.06,0.12,4.12,0.18,6.18l0.09,3.05c0.03,0.35,0.22,0.68,0.51,0.87c0.14,0.1,0.3,0.17,0.46,0.2
                            c0.08,0.02,0.17,0.02,0.25,0.03l0.38,0c4.12-0.06,8.24-0.03,12.36,0.14C254.3,221.43,258.41,221.62,262.53,221.6z"></path>
                        <path fill="#49392A" d="M266.2,198.52c0.31,5.25,0.55,10.15,0.62,15c0.03,1.21,0.03,2.42,0.02,3.63l-0.04,1.81l-0.03,0.91
                            c-0.02,0.22,0.02,0.42,0.11,0.62c0.17,0.39,0.55,0.7,1,0.78c0.57,0.07,1.01,0.05,1.41-0.26c0.19-0.15,0.35-0.34,0.45-0.57
                            c0.06-0.11,0.09-0.23,0.12-0.36l0.1-0.46c0.12-0.62,0.29-1.23,0.46-1.84c0.73-2.41,1.76-4.71,3.12-6.83
                            c1.37-2.11,3.16-4,5.34-5.39c2.18-1.37,4.74-2.16,7.32-2.33l0.97-0.07c0.2-0.01,0.21-0.02,0.31-0.03
                            c0.08-0.02,0.15-0.05,0.22-0.09c0.13-0.08,0.25-0.2,0.31-0.34c0.03-0.07,0.05-0.14,0.07-0.22c0.01-0.08,0.01-0.12,0.01-0.31
                            c-0.03-1.24-0.03-2.48-0.03-3.72l0.85,0.85c-3.69,0.01-7.37-0.09-11.13-0.24l-5.7-0.26L266.2,198.52z M266.08,198.41
                            c1.8-0.1,3.63-0.22,5.51-0.3l5.68-0.26c3.83-0.14,7.74-0.25,11.63-0.24c0.47,0,0.85,0.38,0.85,0.85c0,1.24-0.01,2.48-0.03,3.72
                            c0,0.12,0,0.39-0.05,0.62c-0.05,0.23-0.13,0.45-0.24,0.66c-0.22,0.41-0.56,0.75-0.97,0.97c-0.21,0.11-0.43,0.19-0.65,0.24
                            c-0.21,0.05-0.51,0.05-0.62,0.05l-0.89,0.04c-2.37,0.1-4.72,0.68-6.82,1.82c-2.12,1.1-3.97,2.76-5.44,4.71
                            c-1.44,1.98-2.47,4.27-3.06,6.64c-0.12,0.6-0.27,1.19-0.32,1.8l-0.06,0.45c-0.02,0.18-0.06,0.37-0.12,0.54
                            c-0.12,0.35-0.34,0.68-0.62,0.93c-0.28,0.26-0.63,0.45-1,0.54c-0.18,0.05-0.4,0.07-0.56,0.08l-0.23,0.01
                            c-0.09,0-0.19,0-0.29-0.01c-0.79-0.06-1.54-0.54-1.94-1.25c-0.2-0.35-0.31-0.77-0.32-1.17l-0.03-0.95l-0.04-1.91
                            c-0.01-1.27-0.01-2.55,0.02-3.82C265.54,208.12,265.77,203.08,266.08,198.41z"></path>
                        <path fill="#49392A" d="M148.24,215.83c0.37,0.1,0.77-0.07,0.93-0.48c0.29-0.59,0.54-1.19,0.89-1.75
                            c0.62-1.15,1.41-2.21,2.25-3.21c1.71-1.98,3.8-3.63,6.12-4.81c2.31-1.22,4.88-1.9,7.47-2.14c2.6-0.19,5.23,0.07,7.73,0.85
                            c4.98,1.54,9.35,5.11,11.76,9.79c0.6,1.17,1.12,2.38,1.47,3.64l0.27,0.95c0.08,0.32,0.13,0.64,0.19,0.97l0.18,0.97
                            c0.03,0.18,0.12,0.34,0.25,0.45c0.15,0.11,0.28,0.17,0.51,0.16l0.96-0.01l0.24,0c0.05,0,0.09,0,0.13-0.01
                            c0.08-0.02,0.16-0.05,0.23-0.09c0.15-0.09,0.25-0.24,0.29-0.4c0.02-0.08,0.03-0.16,0.02-0.25l-0.08-0.44l-0.16-0.92
                            c-0.09-0.62-0.26-1.21-0.43-1.81c-1.34-4.78-4.28-9.1-8.27-12.05c-3.98-2.97-8.91-4.5-13.85-4.52
                            c-4.95,0.01-9.85,1.73-13.79,4.76c-1.96,1.52-3.67,3.37-5.05,5.44c-0.71,1.03-1.29,2.13-1.81,3.26
                            c-0.06,0.12-0.16,0.32-0.18,0.38c-0.03,0.09-0.04,0.17-0.04,0.26c0,0.18,0.08,0.36,0.21,0.49c0.14,0.14,0.24,0.17,0.61,0.27
                            L148.24,215.83z M147.95,216.87l-0.93-0.24c-0.25-0.05-0.8-0.2-1.1-0.54c-0.33-0.32-0.53-0.76-0.56-1.22
                            c-0.01-0.23,0.02-0.46,0.09-0.68c0.08-0.24,0.14-0.32,0.21-0.49c0.52-1.2,1.11-2.37,1.83-3.47c1.41-2.21,3.18-4.19,5.22-5.85
                            c4.11-3.29,9.34-5.15,14.62-5.22c5.29-0.09,10.56,1.7,14.75,4.9c4.21,3.19,7.26,7.81,8.61,12.88c0.17,0.63,0.35,1.27,0.43,1.92
                            l0.16,0.97c0.03,0.17,0.06,0.31,0.08,0.5c0.02,0.23,0,0.47-0.07,0.7c-0.13,0.45-0.43,0.85-0.83,1.09
                            c-0.2,0.12-0.42,0.21-0.65,0.25c-0.11,0.02-0.23,0.03-0.35,0.03l-0.24,0l-0.96-0.01c-0.42,0.01-0.92-0.15-1.26-0.45
                            c-0.35-0.3-0.59-0.74-0.65-1.19l-0.16-0.92c-0.06-0.3-0.09-0.61-0.17-0.91l-0.24-0.9c-0.32-1.2-0.79-2.35-1.35-3.47
                            c-2.22-4.46-6.32-7.92-11.07-9.47c-2.37-0.78-4.91-1.08-7.4-0.87c-2.49,0.24-4.95,0.91-7.15,2.09
                            c-2.23,1.14-4.18,2.77-5.79,4.68c-0.78,0.97-1.51,1.99-2.08,3.09c-0.32,0.53-0.55,1.12-0.82,1.68
                            c-0.14,0.37-0.47,0.77-0.86,0.96C148.87,216.93,148.39,216.99,147.95,216.87z"></path>
                        <path fill="#49392A" d="M147.92,210.72c-1.46-0.22-2.89-0.5-4.35-0.76c-1.54-0.33-2.96-1.37-3.7-2.82
                            c-0.39-0.72-0.6-1.53-0.64-2.35l-0.06-2.21l-0.04-4.4c0-0.39,0.31-0.71,0.7-0.71l0,0l0.01,0c4.16-0.01,8.33,0.27,12.49,0.41
                            c4.16,0.13,8.33,0.05,12.49-0.12c4.16-0.18,8.33-0.3,12.49-0.34c4.16-0.07,8.33-0.11,12.49-0.03l0.03,0
                            c0.44,0.01,0.79,0.37,0.78,0.81c-0.05,2.99-0.12,5.99-0.24,8.98l-0.2,4.49c-0.09,1.5-0.16,2.99-0.29,4.49
                            c0,0.04-0.04,0.08-0.09,0.07c-0.04,0-0.07-0.03-0.07-0.07c-0.12-1.5-0.19-2.99-0.29-4.49l-0.2-4.49
                            c-0.12-2.99-0.2-5.99-0.24-8.98l0.81,0.81c-4.16,0.08-8.33,0.04-12.49-0.03c-4.16-0.05-8.33-0.16-12.49-0.34
                            c-4.16-0.17-8.33-0.25-12.49-0.12c-4.16,0.14-8.33,0.42-12.49,0.41l0.71-0.71l-0.04,4.4l-0.05,2.18c0,0.64,0.13,1.29,0.4,1.89
                            c0.52,1.2,1.59,2.17,2.88,2.58c1.38,0.45,2.8,0.86,4.19,1.34c0.04,0.01,0.06,0.06,0.05,0.1
                            C148,210.71,147.96,210.73,147.92,210.72z"></path>
                        <path fill="#49392A" d="M288.9,197.95c2.6,0.02,5.12,0.57,7.54,1.4c2.41,0.84,4.72,2.02,6.79,3.56
                            c2.07,1.52,3.86,3.44,5.25,5.63c1.37,2.19,2.3,4.66,2.78,7.19c0.12,0.63,0.22,1.27,0.28,1.91c0.04,0.32,0.07,0.67,0.11,0.84
                            c0.05,0.21,0.15,0.42,0.28,0.59c0.27,0.35,0.69,0.59,1.13,0.63l0.17,0.01l0.23,0l0.47,0l0.94,0l7.52-0.01l15.03-0.02
                            l-0.14,0.01c2.64-0.56,5.29-1.14,7.92-1.75c0.65-0.16,1.31-0.31,1.95-0.48c0.31-0.08,0.65-0.18,0.92-0.27
                            c0.28-0.1,0.6-0.24,0.84-0.37c0.51-0.28,0.74-0.56,0.88-1.11c0.13-0.55,0.13-1.17,0.13-1.87c0.04-5.42,0.02-10.85,0.1-16.27
                            c0-0.03,0-0.07,0.01-0.1l0-0.02c0.04-0.23,0.02-0.61-0.07-0.91c-0.09-0.32-0.23-0.62-0.43-0.89c-0.2-0.28-0.45-0.52-0.72-0.74
                            c-0.28-0.22-0.59-0.41-0.92-0.58l0,0l-0.04-0.02c-0.24-0.14-0.32-0.44-0.19-0.68c0.02-0.04,0.06-0.08,0.09-0.11l1.12-1.08
                            c0.2-0.19,0.35-0.33,0.47-0.51c0.13-0.17,0.23-0.37,0.31-0.57c0.17-0.41,0.15-0.84,0.16-1.39l0.03-1.55
                            c0.05-2.07,0.05-4.14,0.08-6.21c0.01-0.54,0.02-0.98-0.16-1.42c-0.16-0.43-0.45-0.82-0.82-1.1c-0.82-0.54-1.74-1.1-2.6-1.64
                            l-5.28-3.25c-0.08-0.05-0.12-0.13-0.12-0.21l0-0.01c-0.06-4.35-0.67-8.72-1.64-12.97c-0.99-4.25-2.36-8.42-4.25-12.35
                            c-1.88-3.92-4.27-7.61-7.19-10.82c-2.91-3.21-6.36-5.93-10.18-7.94c-3.82-2.03-7.98-3.37-12.23-4.12
                            c-2.13-0.37-4.29-0.59-6.45-0.7c-2.15-0.13-4.33-0.08-6.53-0.08l-26.3,0.1l0.84-0.84l-0.03,18.4
                            c-0.02,6.13,0.01,12.26-0.06,18.4c-0.05,6.13-0.07,12.26-0.17,18.4c-0.07,6.13-0.2,12.26-0.34,18.4v0l-0.25-0.25
                            c3.79-0.08,7.59-0.13,11.38-0.16L288.9,197.95z M288.9,198.98l-11.38-0.11c-3.79-0.03-7.59-0.08-11.38-0.16
                            c-0.14,0-0.25-0.11-0.25-0.25l0,0c-0.14-6.13-0.27-12.26-0.34-18.4c-0.1-6.13-0.12-12.26-0.17-18.4
                            c-0.06-6.13-0.04-12.26-0.06-18.4l-0.03-18.4c0-0.46,0.37-0.84,0.83-0.84h0.01l26.3,0.1c2.18,0.02,4.39-0.02,6.61,0.13
                            c2.21,0.14,4.42,0.41,6.61,0.83c4.36,0.84,8.63,2.29,12.52,4.44c3.91,2.13,7.4,4.99,10.33,8.32c2.93,3.33,5.29,7.13,7.12,11.14
                            c1.85,4.01,3.21,8.22,4.16,12.52c0.48,2.15,0.84,4.32,1.12,6.5c0.28,2.18,0.48,4.37,0.5,6.59l-0.12-0.22l5.29,3.24
                            c0.89,0.55,1.75,1.05,2.67,1.63c0.46,0.34,0.82,0.81,1.03,1.34c0.23,0.52,0.24,1.14,0.23,1.63c0.03,2.07,0.03,4.14,0.08,6.21
                            l0.03,1.55c0,0.27,0.02,0.49,0.01,0.8c-0.01,0.3-0.07,0.59-0.16,0.88c-0.09,0.28-0.23,0.56-0.4,0.81
                            c-0.16,0.25-0.39,0.48-0.56,0.65l-1.08,1.12l-0.14-0.82l0,0c0.38,0.19,0.76,0.4,1.11,0.66c0.35,0.27,0.68,0.57,0.95,0.94
                            c0.27,0.37,0.49,0.78,0.62,1.23c0.13,0.46,0.2,0.89,0.11,1.45l0.01-0.12c0.08,5.42,0.06,10.85,0.1,16.27
                            c0,0.66,0.03,1.41-0.15,2.18c-0.09,0.39-0.25,0.81-0.54,1.18c-0.28,0.37-0.65,0.63-0.99,0.81c-0.35,0.19-0.66,0.32-1.02,0.46
                            c-0.37,0.14-0.69,0.22-1.03,0.32c-0.67,0.19-1.33,0.35-1.99,0.51c-2.65,0.65-5.3,1.22-7.96,1.77c-0.05,0.01-0.1,0.01-0.15,0.01
                            l-15.03-0.02l-7.52-0.01l-0.94,0l-0.47,0l-0.24,0c-0.1,0-0.2-0.01-0.3-0.02c-0.81-0.08-1.57-0.52-2.06-1.16
                            c-0.24-0.32-0.42-0.7-0.51-1.1c-0.09-0.44-0.09-0.72-0.13-1.02c-0.05-0.61-0.14-1.21-0.25-1.81c-0.43-2.39-1.28-4.7-2.54-6.77
                            c-1.28-2.06-2.94-3.88-4.9-5.35c-1.95-1.47-4.14-2.62-6.45-3.45C293.76,199.57,291.32,199.02,288.9,198.98z"></path>
                        <path fill="#49392A" d="M277.86,129.81l0.24,32.26l0.11,16.07l0.02,8.02c0,2.67,0,5.35-0.04,8.02l-0.66-0.66l0,0l11.95,0.21
                            c1.98,0.01,4.02,0.03,6.02,0.35c2,0.31,3.96,0.84,5.82,1.63c1.86,0.81,3.59,1.88,5.16,3.15c0.73,0.7,1.52,1.33,2.16,2.12
                            c0.33,0.38,0.68,0.74,0.99,1.14l0.88,1.22c2.31,3.31,3.78,7.11,4.75,10.99l-0.25-0.19c3.52,0.01,7.04-0.04,10.55-0.07
                            c3.52-0.03,7.04-0.09,10.55-0.17l-0.5,0.5l0,0c-0.1-5.21-0.13-10.41-0.17-15.62l-0.08-15.62l-0.03-7.81l-0.01-1.95
                            c-0.02-0.63-0.03-1.26-0.09-1.89c-0.1-1.26-0.28-2.53-0.52-3.78c-0.95-5.03-2.64-9.94-4.93-14.53
                            c-2.3-4.59-5.24-8.85-8.83-12.49c-3.6-3.63-7.93-6.51-12.71-8.31c-2.4-0.88-4.88-1.49-7.41-1.87c-2.53-0.34-5.12-0.38-7.64-0.4
                            C288.13,130.08,283.03,129.93,277.86,129.81z M277.19,129.13c5.23-0.08,10.55-0.2,15.89-0.22c2.68-0.02,5.31,0,7.94,0.33
                            c2.62,0.37,5.22,0.98,7.72,1.87c4.99,1.83,9.54,4.79,13.31,8.52c3.78,3.73,6.8,8.16,9.17,12.87c2.36,4.72,4.1,9.75,5.08,14.95
                            c0.24,1.3,0.42,2.62,0.52,3.95c0.06,0.66,0.07,1.34,0.08,2.01l-0.01,1.95l-0.03,7.81l-0.08,15.62
                            c-0.05,5.21-0.07,10.41-0.17,15.62l0,0l0,0.02c-0.01,0.27-0.23,0.48-0.5,0.47c-3.52-0.08-7.04-0.15-10.55-0.17
                            c-3.52-0.03-7.04-0.08-10.55-0.07c-0.12,0-0.22-0.08-0.25-0.19c-0.96-3.83-2.36-7.62-4.68-10.82l-0.88-1.19
                            c-0.3-0.39-0.65-0.74-0.98-1.11c-0.63-0.76-1.41-1.37-2.12-2.04c-1.54-1.21-3.23-2.23-5.04-3c-1.81-0.76-3.74-1.21-5.68-1.47
                            c-1.95-0.27-3.91-0.24-5.91-0.21l-11.95,0.21l0,0c-0.36,0-0.66-0.29-0.66-0.65l0-0.01c-0.04-2.72-0.04-5.44-0.04-8.15
                            l0.02-8.16l0.11-16.29L277.19,129.13z"></path>
                        <path fill="#49392A" d="M277.52,172.24c4.88-0.31,9.77-0.51,14.65-0.62c4.88-0.13,9.77-0.16,14.65-0.18
                            c4.88,0.01,9.77,0.05,14.65,0.17c4.88,0.1,9.77,0.31,14.65,0.62c-4.88,0.31-9.77,0.52-14.65,0.62
                            c-4.88,0.13-9.77,0.16-14.65,0.17c-4.88-0.02-9.77-0.05-14.65-0.18C287.29,172.76,282.4,172.55,277.52,172.24z"></path>
                        <path fill="#49392A" d="M266.29,193.26c0.94,0.06,1.87,0.1,2.81,0.12c0.94,0.04,1.87,0.02,2.81,0.03
                            c0.94,0.01,1.87-0.01,2.81-0.04c0.94-0.04,1.87-0.08,2.81-0.17l0.01,1.59c-0.94-0.08-1.87-0.11-2.81-0.14
                            c-0.94-0.02-1.87-0.03-2.81-0.01c-0.94,0.02-1.87,0.02-2.81,0.06c-0.94,0.03-1.87,0.08-2.81,0.15L266.29,193.26z"></path>
                        <path fill="#49392A" d="M347.95,194.57l-11.23-0.4c-0.18-0.01-0.33-0.16-0.32-0.34c0.01-0.17,0.15-0.31,0.32-0.32l11.23-0.52
                            c0.44-0.02,0.81,0.32,0.83,0.76c0.02,0.44-0.32,0.81-0.76,0.83C347.99,194.57,347.97,194.57,347.95,194.57z"></path>
                        <path fill="#49392A" d="M333.01,178.31c-2.12-0.06-4.23,0.14-6.35,0.23l-1.59,0.09l-0.79,0.04l-0.4,0.02l-0.09,0.01
                            c0.01,0,0.02,0,0.04,0c0.02,0,0.05-0.01,0.07-0.02c0.09-0.04,0.14-0.19,0.06-0.29c-0.02-0.02-0.04-0.05-0.07-0.07
                            c-0.01-0.01-0.04-0.02-0.03-0.02l0.1,0.02l0.39,0.09l1.54,0.38l3.07,0.82c1.02,0.29,2.03,0.61,3.04,0.93l0.75,0.25
                            c0.2,0.07,0.28,0.1,0.44,0.08c0.29-0.02,0.6-0.23,0.71-0.55c0.06-0.13,0.07-0.44,0.09-0.7c0.01-0.15,0.03-0.25,0.02-0.34
                            c0-0.1-0.02-0.2-0.05-0.29C333.83,178.61,333.44,178.32,333.01,178.31z M333.01,177.76c0.63-0.02,1.27,0.35,1.58,0.93
                            c0.08,0.15,0.14,0.3,0.18,0.47c0.04,0.17,0.05,0.33,0.06,0.45c0.01,0.27,0.08,0.49,0.04,0.89c-0.08,0.72-0.62,1.39-1.36,1.62
                            c-0.36,0.12-0.82,0.1-1.13,0.02l-0.78-0.17c-1.03-0.24-2.06-0.5-3.08-0.77l-3.05-0.88l-1.52-0.47l-0.38-0.12l-0.09-0.03
                            c-0.05-0.01-0.15-0.05-0.21-0.09c-0.15-0.08-0.28-0.18-0.38-0.31c-0.44-0.51-0.31-1.35,0.22-1.7c0.13-0.09,0.28-0.15,0.43-0.19
                            c0.08-0.02,0.15-0.02,0.23-0.02l0.11,0l0.4,0.02l0.79,0.04l1.59,0.09C328.77,177.63,330.89,177.83,333.01,177.76z"></path>
                        <path fill="#49392A" d="M280.88,177.72l-0.15,13.47l-0.33-0.32l0,0c1.96-0.18,3.92-0.27,5.89-0.26c1.96,0,3.93,0.03,5.9,0.19
                            c3.93,0.3,7.87,0.86,11.66,2.23c0.48,0.16,0.95,0.33,1.4,0.56c0.46,0.22,0.93,0.41,1.36,0.67l1.29,0.84
                            c0.41,0.31,0.78,0.65,1.16,0.97c1.49,1.35,2.76,2.91,3.85,4.58c1.09,1.66,1.98,3.44,2.76,5.25c0.77,1.82,1.42,3.67,1.89,5.6
                            l-0.25-0.2c1.34,0.03,2.67,0.01,4.01,0.01l4.01-0.01c2.67-0.03,5.35-0.07,8.02-0.18l0,0l-0.42,0.42
                            c-0.1-3.23-0.17-6.46-0.22-9.68l-0.06-4.84l-0.02-2.42c0-0.12,0-0.17-0.01-0.22c-0.01-0.05-0.02-0.11-0.04-0.16
                            c-0.03-0.1-0.09-0.2-0.16-0.28c-0.07-0.08-0.15-0.15-0.25-0.2c-0.1-0.05-0.17-0.07-0.4-0.12c-6.28-1.5-12.56-3-18.82-4.56
                            c-0.08-0.02-0.23-0.05-0.38-0.11c-0.14-0.05-0.28-0.12-0.41-0.2c-0.26-0.16-0.49-0.37-0.67-0.61c-0.2-0.29-0.24-0.4-0.36-0.6
                            l-0.3-0.52l-1.21-2.1l-2.41-4.2c-0.24-0.43-0.28-0.51-0.48-0.64c-0.09-0.05-0.19-0.09-0.29-0.1l-0.59-0.08l-2.4-0.32l-4.8-0.64
                            l-9.6-1.31l-4.8-0.66l-1.2-0.17l-0.6-0.08c-0.2-0.03-0.42-0.06-0.53-0.06C281.4,176.64,280.88,177.15,280.88,177.72z
                             M279.95,177.72c-0.03-1.06,0.89-2.05,1.98-2.06c0.29,0,0.47,0.03,0.67,0.05l0.6,0.07l1.2,0.14l4.81,0.54l9.62,1.1l4.81,0.56
                            l2.4,0.28l0.61,0.07c0.3,0.04,0.59,0.14,0.85,0.29c0.26,0.15,0.49,0.35,0.68,0.59c0.21,0.28,0.27,0.42,0.38,0.6l2.44,4.18
                            l1.21,2.1l0.3,0.52c0.09,0.15,0.23,0.4,0.26,0.44c0.06,0.08,0.13,0.15,0.22,0.2c0.04,0.03,0.09,0.05,0.13,0.06
                            c0.04,0.02,0.09,0.03,0.21,0.06c6.28,1.52,12.53,3.11,18.79,4.69c0.16,0.04,0.49,0.12,0.74,0.26c0.26,0.14,0.49,0.33,0.68,0.56
                            c0.19,0.23,0.33,0.49,0.42,0.78c0.05,0.14,0.07,0.29,0.09,0.43c0.02,0.15,0.01,0.3,0.01,0.38l-0.02,2.42l-0.06,4.84
                            c-0.05,3.23-0.12,6.46-0.22,9.68l0,0.03c-0.01,0.23-0.2,0.4-0.42,0.4l0,0l0,0c-2.67-0.11-5.35-0.14-8.02-0.18l-4.01-0.01
                            c-1.34,0-2.67-0.01-4.01,0.01c-0.12,0-0.21-0.07-0.24-0.18l0-0.02c-1.03-3.72-2.65-7.33-4.88-10.46c-1.12-1.56-2.4-3-3.86-4.22
                            c-0.38-0.29-0.74-0.6-1.12-0.86l-1.2-0.71c-0.41-0.22-0.86-0.38-1.28-0.58c-0.42-0.21-0.87-0.36-1.33-0.5
                            c-3.61-1.22-7.48-1.71-11.33-2.11c-3.86-0.39-7.75-0.56-11.64-0.66l0,0c-0.17,0.01-0.32-0.13-0.33-0.3l0-0.01l0-0.01
                            L279.95,177.72z"></path>
                        <path fill="#49392A" d="M301.63,167.96c-0.35-0.61-0.31-1.41,0.09-1.98c0.1-0.14,0.22-0.27,0.35-0.38
                            c0.14-0.11,0.3-0.2,0.37-0.23l0.53-0.28l2.15-1.09c1.44-0.72,2.88-1.43,4.28-2.22l4.2-2.37l2.1-1.18l0.52-0.3
                            c0.16-0.1,0.47-0.24,0.72-0.24c0.54-0.04,1.09,0.25,1.35,0.73c0.28,0.47,0.26,1.09-0.05,1.53c-0.13,0.22-0.41,0.42-0.58,0.5
                            l-0.52,0.3l-2.08,1.22l-4.16,2.43c-1.39,0.81-2.74,1.69-4.09,2.56l-2.04,1.29l-0.51,0.31c-0.06,0.04-0.22,0.14-0.39,0.2
                            c-0.16,0.06-0.33,0.1-0.51,0.11C302.69,168.94,301.98,168.57,301.63,167.96z M303.01,167.17c0.05,0.09,0.15,0.15,0.26,0.15
                            c0.03,0,0.05-0.01,0.08-0.01c0.02,0,0.04-0.01,0.15-0.07l0.53-0.29l2.15-1.1c1.44-0.72,2.88-1.44,4.28-2.23l4.2-2.36l2.1-1.18
                            l0.53-0.29c0.19-0.1,0.25-0.15,0.33-0.27c0.15-0.21,0.17-0.52,0.04-0.75c-0.13-0.23-0.4-0.37-0.67-0.35
                            c-0.15,0.01-0.22,0.04-0.4,0.15l-0.52,0.3l-2.08,1.21l-4.17,2.42c-1.39,0.81-2.73,1.69-4.08,2.57l-2.03,1.3l-0.51,0.32
                            c-0.11,0.07-0.12,0.08-0.14,0.1c-0.02,0.02-0.04,0.04-0.05,0.06C302.96,166.96,302.96,167.08,303.01,167.17z"></path>
                        <path fill="#49392A" d="M319.91,172.45c-1.29-1.37-2.53-2.77-3.76-4.19c-0.03-0.03-0.05-0.07-0.07-0.11l-0.03-0.09
                            c-0.18-0.5-0.36-1-0.56-1.5c-0.2-0.5-0.37-1-0.47-1.52c-0.1-0.52-0.17-1.05-0.2-1.6c-0.03-0.54-0.03-1.09,0.07-1.67
                            c0.01-0.05,0.05-0.08,0.1-0.07c0.02,0,0.04,0.01,0.05,0.03c0.37,0.45,0.65,0.92,0.9,1.41c0.25,0.48,0.46,0.98,0.64,1.48
                            c0.18,0.5,0.29,1.02,0.37,1.55c0.08,0.53,0.17,1.05,0.27,1.58l-0.1-0.2c1,1.58,1.98,3.18,2.91,4.82
                            c0.02,0.04,0.01,0.09-0.03,0.11C319.97,172.48,319.93,172.47,319.91,172.45z"></path>
                        <path fill="#49392A" d="M307.92,165.99c0.87,0.53,1.72,1.08,2.56,1.64c0.42,0.28,0.83,0.57,1.24,0.86
                            c0.41,0.29,0.87,0.53,1.26,0.84c0.04,0.03,0.08,0.07,0.11,0.12l0.04,0.06c0.28,0.4,0.48,0.85,0.65,1.32
                            c0.09,0.23,0.15,0.48,0.21,0.73c0.06,0.25,0.1,0.52,0.1,0.8c0,0.05-0.04,0.09-0.09,0.1c-0.01,0-0.03,0-0.04-0.01
                            c-0.26-0.12-0.48-0.27-0.69-0.42c-0.21-0.15-0.41-0.32-0.58-0.49c-0.36-0.34-0.69-0.71-0.94-1.13l0.16,0.18
                            c-0.37-0.34-0.67-0.76-1.03-1.12c-0.35-0.37-0.7-0.72-1.05-1.09c-0.69-0.74-1.36-1.49-2.02-2.26
                            c-0.03-0.03-0.03-0.08,0.01-0.11C307.86,165.97,307.9,165.97,307.92,165.99z"></path>
                        <path fill="#49392A" d="M145.54,198.18c0.33,0.9,0.5,1.8,0.62,2.69c0.07,0.4,0.09,1.02-0.03,1.54
                            c-0.12,0.53-0.36,1.04-0.69,1.48c-0.66,0.88-1.72,1.44-2.79,1.48c-0.26,0.02-0.55-0.01-0.77-0.05l-0.67-0.13
                            c-0.45-0.11-0.9-0.21-1.35-0.39c0.45-0.18,0.9-0.28,1.35-0.39c0.45-0.09,0.92-0.16,1.25-0.28c0.71-0.23,1.3-0.66,1.72-1.21
                            c0.21-0.27,0.38-0.58,0.5-0.92c0.13-0.35,0.18-0.64,0.24-1.13C145.04,199.97,145.21,199.08,145.54,198.18z"></path>
                        <path fill="#49392A" d="M350.22,182.11c-1.03,0.4-1.9,0.95-2.42,1.66c-0.54,0.7-0.7,1.57-0.73,2.49
                            c-0.02,0.94,0.15,1.79,0.66,2.47c0.51,0.69,1.43,1.17,2.49,1.48c-1.04,0.35-2.35,0.24-3.36-0.6c-1.02-0.83-1.42-2.21-1.38-3.38
                            c0.01-1.17,0.44-2.52,1.43-3.33C347.88,182.08,349.14,181.85,350.22,182.11z"></path>
                        <rect x="132.44" y="115.73" fill="#FFFFFF" width="133.71" height="82.31"></rect>
                        <path fill="#E3DED8" d="M266.14,198.04v-19.13c-2.71,10.7-16.64,13.81-27.74,13.81s-84.76,2.12-94.97-2.82s-11-24.54-11-24.54
                            v32.68H266.14z"></path>
                        <g>
                            <path fill-rule="evenodd" clip-rule="evenodd" fill="#107433" d="M221.71,135.69c-0.18-0.21,0.33-0.95,0.57-1.63
                                c0.25-0.68,0.09-2.84-0.37-3.33c-0.46-0.49-1.4,1.28-1.74,0.97c-0.26-0.23-0.4-1.62-0.56-2.02c-0.28-0.74-0.66-1.32-1.07-1.23
                                c-0.24,0.05-0.75,1.12-1.17,1.56c-0.22,0.24-0.25,0.04-0.96-0.49c-0.91-0.69-1-0.83-1.3-0.66c-0.3,0.16,0.06,1.77-0.09,1.94
                                c-0.14,0.17-3.14,0.19-5.27,1.72c-8.35,6.01-8.57,12.79-8.68,19.86c0,0-0.19,12.65-2.14,16.83c-1.34,2.88-4.28,4.98-7.31,5.06
                                c-3.03,0.08-5.16-1.49-7.74-3.54c-2.45-1.96-5.19-5.55-5.05-5.17c4.82,12.51,14.03,16.1,22.02,15.89
                                c8.33-0.21,14.83-3.98,18.36-8.68c4.1-5.47,4.26-13.74,1.61-19.59c-1.36-3.51-3.56-7.56-3.98-8.9
                                c-0.16-0.5-0.33-1.11-0.47-1.74c0.42,0.15,0.97,0.19,1.68,0.04c2.47-0.54,1.06-3.74,0.83-4.25c0.01,0,0.03,0,0.04,0
                                c0.77-0.09,1.95,0.13,2.39,0.21c0.93,0.18,2.03,0.43,2.28,0.02c0.18-0.3,0.13-0.62-0.04-0.9
                                C223.07,136.86,221.85,135.85,221.71,135.69z M216.89,133.37c0.62,0,1.13,0.57,1.13,1.27c0,0.7-0.51,1.27-1.13,1.27
                                c-0.62,0-1.13-0.57-1.13-1.27C215.76,133.93,216.27,133.37,216.89,133.37z"></path>
                            <path fill="#107433" d="M217.55,134.62c0,0.41-0.29,0.74-0.65,0.74c-0.36,0-0.65-0.33-0.65-0.74c0-0.41,0.29-0.74,0.65-0.74
                                C217.26,133.88,217.55,134.21,217.55,134.62z"></path>
                            <path fill-rule="evenodd" clip-rule="evenodd" fill="#107433" d="M200.34,152.36c0,0-0.56,12.78-1.69,15.49
                                c-1.2,2.9-3.03,5.3-6.55,5.55c-3.51,0.25-6.73-2.33-8.15-3.54c-1.87-1.6-2.35-2.3-4.96-4.91c-0.34-0.34-2.17-2.8-2.67-3.9
                                c-1.36-2.99-0.67-3.9-1.5-5.22c-2.32-3.7,0.88-8.94,3-10.71c0.43-0.36-0.22-1.53-0.36-1.86c-0.49-1.16,0.59-1.83,1.64-2.57
                                c0.51-0.36-0.17-0.77,0.36-1.07c0.45-0.26,2.08-0.44,2.64-0.5c2.33-0.24,2.36,7.46,3.39,10.4c0.17,0.49,0.9,2.84,5.83,1.43
                                C198.04,149.06,200.34,152.36,200.34,152.36z"></path>
                        </g>
                        <path fill="#49392A" d="M266.2,198.52l-33.22,0.33l-16.69,0.14l-16.75,0.08l-16.76,0.07l-16.79-0.01
                            c-11.19,0.01-22.39-0.13-33.55-0.21l-0.01,0c-0.25,0-0.45-0.21-0.45-0.45c0.05-6.86,0.14-13.72,0.15-20.58l0.06-20.58
                            l-0.05-20.58L132,116.16c0-0.24,0.19-0.43,0.43-0.44h0l0.01,0l33.43-0.22l33.43-0.13c11.14-0.04,22.28-0.07,33.43-0.04
                            l33.43,0.06l0.01,0c0.43,0,0.77,0.35,0.77,0.77l0,0c-0.08,13.8-0.14,27.62-0.29,41.35L266.2,198.52z M266.08,198.41l-0.43-41.3
                            c-0.15-13.7-0.2-27.32-0.29-40.95l0.77,0.77l-33.43,0.06c-11.14,0.03-22.28,0-33.43-0.04l-33.43-0.13l-33.43-0.22l0.44-0.44
                            l-0.14,20.58l-0.05,20.58l0.06,20.58c0.01,6.86,0.1,13.72,0.15,20.58l-0.45-0.45c11.12-0.08,22.2-0.22,33.3-0.21l16.64-0.01
                            l16.67,0.07l16.68,0.08l16.73,0.14L266.08,198.41z"></path>
                    </g>
                    <g id="gCarWheel">
                        <g style="transform-origin: 0px 0px 0px;" data-svg-origin="289.4944305419922 223.0279998779297" transform="matrix(0.57501,-0.81815,0.81815,0.57501,-59.43812,331.63454)">
                            <circle fill="#766B5F" cx="289.68" cy="222.7" r="16.98"></circle>
                            <path fill="#64574A" d="M291.42,236.92c-10.01,1.32-17.27-7.12-16.87-17.33c0.1-2.52,0.55-4.91,1.53-7.06
                                c-2.13,2.84-3.39,6.36-3.39,10.18c0,9.38,7.6,16.98,16.98,16.98c6.86,0,12.77-4.07,15.45-9.92
                                C302.03,233.89,296.93,236.19,291.42,236.92z"></path>
                            <circle fill="#9B928A" cx="289.68" cy="222.7" r="11.12"></circle>
                            <path fill="#897F74" d="M287.93,214.08c6.14,0,11.12,4.98,11.12,11.12c0,1.81-0.43,3.52-1.2,5.04
                                c1.83-1.98,2.95-4.63,2.95-7.54c0-6.14-4.98-11.12-11.12-11.12c-4.33,0-8.08,2.47-9.92,6.08
                                C281.79,215.46,284.7,214.08,287.93,214.08z"></path>
                            <circle fill="#C8C4BF" cx="289.68" cy="222.7" r="3.93"></circle>
                            <path fill="#49392A" d="M306.74,223.13c-0.01,4.45-1.58,8.98-4.7,12.36c-3.07,3.42-7.74,5.41-12.36,5.28
                                c-2.31-0.07-4.59-0.6-6.67-1.55c-2.08-0.95-3.95-2.3-5.52-3.91c-3.16-3.22-5.1-7.62-5.23-12.19
                                c-0.17-4.56,1.61-9.23,4.88-12.54c1.62-1.66,3.58-3,5.72-3.92c2.14-0.92,4.49-1.37,6.82-1.38c2.33,0.03,4.67,0.49,6.79,1.43
                                c2.13,0.92,4.04,2.32,5.59,4.02C305.17,214.15,306.75,218.67,306.74,223.13z M306.58,223.13c-0.02-2.21-0.48-4.42-1.42-6.41
                                c-0.93-1.99-2.25-3.78-3.85-5.22c-3.21-2.88-7.4-4.54-11.64-4.5c-4.23,0.01-8.43,1.67-11.48,4.65
                                c-3.05,2.97-4.92,7.14-5.07,11.48c-0.05,2.16,0.29,4.36,1.11,6.4c0.8,2.04,2.05,3.9,3.61,5.43c3.15,3.08,7.56,4.63,11.83,4.49
                                c4.28-0.09,8.45-1.76,11.66-4.66c1.6-1.46,2.91-3.24,3.84-5.24C306.11,227.55,306.57,225.34,306.58,223.13z"></path>
                            <path fill="#49392A" d="M300.88,223.13c-0.02,2.91-0.96,5.91-2.98,8.22c-1.98,2.33-5.13,3.68-8.22,3.57
                                c-1.54-0.07-3.06-0.45-4.43-1.1c-1.37-0.66-2.59-1.57-3.62-2.64c-2.06-2.14-3.37-5.01-3.51-8.05
                                c-0.17-3.03,0.98-6.17,3.16-8.39c1.08-1.12,2.38-2.02,3.82-2.65c1.43-0.63,3.01-0.93,4.57-0.93c1.56,0.03,3.13,0.34,4.55,0.99
                                c1.43,0.63,2.69,1.59,3.68,2.75C299.93,217.21,300.88,220.21,300.88,223.13z M300.72,223.13c-0.02-1.45-0.34-2.89-0.97-4.17
                                c-0.62-1.29-1.53-2.41-2.58-3.32c-2.13-1.79-4.79-2.81-7.49-2.78c-2.69,0.01-5.37,1.04-7.33,2.94
                                c-1.96,1.88-3.2,4.53-3.35,7.33c-0.05,1.4,0.14,2.83,0.66,4.15c0.51,1.33,1.32,2.54,2.34,3.53c2.06,1.99,4.96,2.91,7.68,2.78
                                c2.74-0.1,5.39-1.14,7.51-2.95c1.05-0.92,1.96-2.04,2.57-3.33C300.39,226.02,300.71,224.57,300.72,223.13z"></path>
                            <path fill="#49392A" d="M293.69,223.13c-0.02,1.03-0.19,2.15-0.87,3.14c-0.66,0.99-1.93,1.58-3.14,1.46
                                c-1.23-0.1-2.24-0.83-2.96-1.63c-0.73-0.81-1.25-1.82-1.41-2.96c-0.17-1.14,0.21-2.42,1.06-3.31c0.81-0.91,2.06-1.5,3.31-1.47
                                c0.62,0.01,1.25,0.16,1.8,0.44c0.55,0.28,1.02,0.71,1.35,1.19C293.5,220.97,293.69,222.09,293.69,223.13z M293.53,223.13
                                c0.01-1.03-0.65-1.95-1.45-2.41c-0.79-0.46-1.6-0.69-2.41-0.68c-0.8,0.02-1.61,0.28-2.25,0.83c-0.62,0.56-1.09,1.33-1.25,2.25
                                c-0.16,0.92,0.17,1.96,0.9,2.6c0.73,0.67,1.76,0.78,2.6,0.67c0.86-0.11,1.63-0.37,2.42-0.85
                                C292.88,225.08,293.56,224.16,293.53,223.13z"></path>
                        </g>
                        <g style="transform-origin: 0px 0px 0px;" data-svg-origin="167.284423828125 223.0279998779297" transform="matrix(-0.57501,0.81815,-0.81815,-0.57501,445.945,214.40758)">
                            <circle fill="#766B5F" cx="167.46" cy="222.7" r="16.98"></circle>
                            <path fill="#64574A" d="M169.21,236.92c-10.01,1.32-17.27-7.12-16.87-17.33c0.1-2.52,0.55-4.91,1.53-7.06
                                c-2.13,2.84-3.39,6.36-3.39,10.18c0,9.38,7.6,16.98,16.98,16.98c6.86,0,12.77-4.07,15.45-9.92
                                C179.82,233.89,174.72,236.19,169.21,236.92z"></path>
                            <circle fill="#9B928A" cx="167.46" cy="222.7" r="11.12"></circle>
                            <path fill="#897F74" d="M165.72,214.08c6.14,0,11.12,4.98,11.12,11.12c0,1.81-0.43,3.52-1.2,5.04
                                c1.83-1.98,2.95-4.63,2.95-7.54c0-6.14-4.98-11.12-11.12-11.12c-4.33,0-8.08,2.47-9.92,6.08
                                C159.58,215.46,162.49,214.08,165.72,214.08z"></path>
                            <circle fill="#C8C4BF" cx="167.46" cy="222.7" r="3.93"></circle>
                            <path fill="#49392A" d="M184.53,223.13c-0.01,4.45-1.58,8.98-4.7,12.36c-3.07,3.42-7.74,5.41-12.36,5.28
                                c-2.31-0.07-4.59-0.6-6.67-1.55c-2.08-0.95-3.95-2.3-5.52-3.91c-3.16-3.22-5.1-7.62-5.23-12.19
                                c-0.17-4.56,1.61-9.23,4.88-12.54c1.62-1.66,3.58-3,5.72-3.92c2.14-0.92,4.49-1.37,6.82-1.38c2.33,0.03,4.67,0.49,6.79,1.43
                                c2.13,0.92,4.04,2.32,5.59,4.02C182.96,214.15,184.53,218.67,184.53,223.13z M184.37,223.13c-0.02-2.21-0.48-4.42-1.42-6.41
                                c-0.93-1.99-2.25-3.78-3.85-5.22c-3.21-2.88-7.4-4.54-11.64-4.5c-4.23,0.01-8.43,1.67-11.48,4.65
                                c-3.05,2.97-4.92,7.14-5.07,11.48c-0.05,2.16,0.29,4.36,1.11,6.4c0.8,2.04,2.05,3.9,3.61,5.43c3.15,3.08,7.56,4.63,11.83,4.49
                                c4.28-0.09,8.45-1.76,11.66-4.66c1.6-1.46,2.91-3.24,3.84-5.24C183.89,227.55,184.36,225.34,184.37,223.13z"></path>
                            <path fill="#49392A" d="M178.66,223.13c-0.02,2.91-0.96,5.91-2.98,8.22c-1.98,2.33-5.13,3.68-8.22,3.57
                                c-1.54-0.07-3.06-0.45-4.43-1.1c-1.37-0.66-2.59-1.57-3.62-2.64c-2.06-2.14-3.37-5.01-3.51-8.05
                                c-0.17-3.03,0.98-6.17,3.16-8.39c1.08-1.12,2.38-2.02,3.82-2.65c1.43-0.63,3.01-0.93,4.57-0.93c1.56,0.03,3.13,0.34,4.55,0.99
                                c1.43,0.63,2.69,1.59,3.68,2.75C177.71,217.21,178.67,220.21,178.66,223.13z M178.51,223.13c-0.02-1.45-0.34-2.89-0.97-4.17
                                c-0.62-1.29-1.53-2.41-2.58-3.32c-2.13-1.79-4.79-2.81-7.49-2.78c-2.69,0.01-5.37,1.04-7.33,2.94
                                c-1.96,1.88-3.2,4.53-3.35,7.33c-0.05,1.4,0.14,2.83,0.66,4.15c0.51,1.33,1.32,2.54,2.34,3.53c2.06,1.99,4.96,2.91,7.68,2.78
                                c2.74-0.1,5.39-1.14,7.51-2.95c1.05-0.92,1.96-2.04,2.57-3.33C178.18,226.02,178.5,224.57,178.51,223.13z"></path>
                            <path fill="#49392A" d="M171.48,223.13c-0.02,1.03-0.19,2.15-0.87,3.14c-0.66,0.99-1.93,1.58-3.14,1.46
                                c-1.23-0.1-2.24-0.83-2.96-1.63c-0.73-0.81-1.25-1.82-1.41-2.96c-0.17-1.14,0.21-2.42,1.06-3.31c0.81-0.91,2.06-1.5,3.31-1.47
                                c0.62,0.01,1.25,0.16,1.8,0.44c0.55,0.28,1.02,0.71,1.35,1.19C171.29,220.97,171.47,222.09,171.48,223.13z M171.32,223.13
                                c0.01-1.03-0.65-1.95-1.45-2.41c-0.79-0.46-1.6-0.69-2.41-0.68c-0.81,0.02-1.61,0.28-2.25,0.83
                                c-0.62,0.56-1.09,1.33-1.25,2.25c-0.16,0.92,0.17,1.96,0.9,2.6c0.73,0.67,1.76,0.78,2.6,0.67c0.86-0.11,1.63-0.37,2.42-0.85
                                C170.67,225.08,171.35,224.16,171.32,223.13z"></path>
                        </g>
                    </g>
                </g>
                <g id="gCarWind">
                    <path fill="#49392A" d="M105.26,177.74c2.69-3.17,6.07-5.66,9.66-7.72c3.6-2.06,7.49-3.59,11.47-4.76
                        c2.02-0.47,4.02-1.03,6.08-1.3c1.03-0.14,2.04-0.36,3.07-0.44l3.09-0.24c0.52-0.03,1.03-0.09,1.55-0.1l1.55,0l3.09,0.02
                        c1.03,0.03,2.05,0.17,3.08,0.24c1.02,0.09,2.05,0.19,3.07,0.3c0.11,0.01,0.18,0.11,0.17,0.22c-0.01,0.1-0.09,0.17-0.19,0.17
                        l-0.02,0c-2.05,0.06-4.09-0.02-6.12,0.05l-3.04,0.18l-1.52,0.08c-0.51,0.03-1.01,0.11-1.51,0.17l-3.02,0.35
                        c-1.01,0.11-1.99,0.35-2.99,0.51c-2,0.29-3.95,0.85-5.91,1.32c-3.88,1.11-7.67,2.54-11.27,4.38c-3.57,1.86-7.05,4.03-10.01,6.8
                        l-0.01,0.01c-0.07,0.07-0.19,0.06-0.25-0.01C105.2,177.91,105.2,177.81,105.26,177.74z" style="transform-origin: 0px 0px 0px; opacity: 0.695;" data-svg-origin="105.21723175048828 170.60388946533203" transform="matrix(0.695,0,0,0.695,46.09799,52.03419)"></path>
                    <path fill="#49392A" d="M107.38,164.26c2.49-1.91,5.22-3.46,8.08-4.74c2.86-1.29,5.86-2.26,8.93-2.95
                        c0.77-0.15,1.54-0.34,2.32-0.45l2.34-0.31c0.78-0.1,1.57-0.09,2.36-0.15l1.18-0.06c0.39-0.01,0.79,0.03,1.18,0.04l2.36,0.11
                        l2.33,0.34l1.16,0.19l1.14,0.3c0.76,0.19,1.51,0.4,2.26,0.61c0.1,0.03,0.16,0.14,0.13,0.24c-0.03,0.09-0.12,0.15-0.21,0.14
                        l-0.02,0c-0.77-0.09-1.53-0.19-2.29-0.3l-1.14-0.16l-1.15-0.06l-2.28-0.14l-2.29,0.04c-3.04,0.12-6.07,0.45-9.03,1.15
                        c-2.97,0.65-5.9,1.54-8.75,2.63c-1.42,0.56-2.84,1.14-4.23,1.79c-1.41,0.61-2.77,1.33-4.12,2.06l-0.01,0.01
                        c-0.1,0.05-0.22,0.02-0.28-0.08C107.27,164.43,107.3,164.32,107.38,164.26z" style="transform-origin: 0px 0px 0px; opacity: 0.195;" data-svg-origin="107.30294036865234 160.1060791015625" transform="matrix(0.195,0,0,0.195,115.24199,128.88539)"></path>
                </g>
                <g id="gCarLeaves">
                    <g style="transform-origin: 0px 0px 0px; opacity: 0.0763;" data-svg-origin="113.0262680053711 202.8000030517578" transform="matrix(1,0,0,1,-42.375,0)">
                        <path fill="#A7C47A" d="M113.1,204.18c0.63,1.05,1.81,1.34,3,1.61s2.26,0.05,3.38-0.43c0.81-0.35,1.55-0.85,2.37-1.19
                            c1.56-0.65,3.36-0.66,4.94-0.07c1.58,0.58,2.94,1.74,3.81,3.18c0.07,0.12,0.15,0.26,0.15,0.4c0,0.13-0.66,3.28-2.56,4.46
                            c-0.79,0.49-1.59,0.96-2.5,1.14c-2.4,0.49-4.92-0.11-7.1-1.22c-2.52-1.3-4.75-5-5.46-7.75"></path>
                        <path fill="#CFDFB6" d="M121.84,204.17c1.56-0.65,3.36-0.66,4.94-0.07c1.16,0.43,2.2,1.17,3.02,2.1l0,0.01
                            c0,0-2.69-1.75-6.27-0.42c-2.82,1.05-5.85,2.05-8.43-0.25c0.32,0.1,0.65,0.17,0.99,0.25c1.19,0.27,2.26,0.05,3.38-0.43
                            C120.29,205.01,121.03,204.51,121.84,204.17z"></path>
                        <path fill="#348F41" d="M129.32,210.51l0.13,0.35c-0.34,0.5-0.76,0.96-1.26,1.27c-0.79,0.49-1.59,0.96-2.5,1.14
                            c-2.4,0.49-4.92-0.11-7.1-1.22c-2.2-1.13-4.18-4.1-5.12-6.66l0.09-0.19C118.98,213.87,129.32,210.51,129.32,210.51z"></path>
                        <path fill="#49392A" d="M113.14,204.15c0.59,0.75,1.48,1,2.37,1.16c0.46,0.08,0.91,0.17,1.33,0.17c0.43,0,0.85-0.06,1.27-0.17
                            c0.84-0.23,1.62-0.63,2.44-1.11c0.83-0.47,1.84-0.87,2.84-0.93c2.03-0.18,3.99,0.59,5.48,1.79c0.75,0.61,1.41,1.32,1.94,2.14
                            c0.07,0.11,0.15,0.24,0.17,0.43c-0.01,0.22-0.03,0.28-0.06,0.42c-0.05,0.24-0.1,0.48-0.17,0.71c-0.13,0.47-0.28,0.93-0.48,1.38
                            c-0.38,0.9-0.95,1.79-1.85,2.41c-0.78,0.53-1.67,1.07-2.72,1.29c-1.98,0.43-4.06,0.16-5.88-0.58
                            c-0.46-0.18-0.91-0.38-1.34-0.62c-0.44-0.23-0.88-0.53-1.26-0.86c-0.77-0.65-1.41-1.4-1.96-2.2c-1.07-1.62-1.87-3.41-2.2-5.29
                            c-0.01-0.03,0.02-0.06,0.05-0.07c0.03-0.01,0.06,0.01,0.07,0.04c0.33,0.88,0.74,1.72,1.21,2.52c0.46,0.81,0.99,1.57,1.58,2.27
                            c0.58,0.71,1.22,1.36,1.92,1.88c0.36,0.26,0.72,0.47,1.12,0.65c0.41,0.19,0.83,0.37,1.25,0.51c1.69,0.58,3.49,0.89,5.23,0.6
                            c0.82-0.12,1.6-0.55,2.41-1c0.69-0.4,1.27-1.1,1.71-1.88c0.22-0.39,0.42-0.81,0.58-1.24c0.08-0.21,0.16-0.43,0.22-0.65
                            c0.07-0.27,0.12-0.29,0.01-0.5c-0.44-0.8-1.05-1.52-1.78-2.08c-1.46-1.15-3.41-1.51-5.13-1.16c-0.87,0.17-1.64,0.49-2.45,0.95
                            c-0.82,0.44-1.74,0.92-2.74,1.1c-1,0.23-2.11,0.03-2.98-0.29c-0.9-0.28-1.91-0.81-2.31-1.74c-0.01-0.03,0-0.07,0.03-0.08
                            C113.09,204.12,113.12,204.13,113.14,204.15z"></path>
                        <path fill="#49392A" d="M119.65,208.4c1.47,0.08,2.9,0.01,4.31-0.17c1.41-0.19,2.8-0.45,4.13-0.89
                            c2.67-0.84,5.1-2.32,7.04-4.54c-0.55,1.37-1.52,2.59-2.69,3.54c-1.17,0.97-2.55,1.67-3.98,2.13c-1.44,0.45-2.94,0.68-4.43,0.68
                            C122.53,209.16,121.02,208.96,119.65,208.4z"></path>
                    </g>
                    <g style="transform-origin: 0px 0px 0px; opacity: 0.8207;" data-svg-origin="66 178.62001037597656" transform="matrix(1,0,0,1,32.0662,0)">
                        <path fill="#A7C47A" d="M71.9,199.9c0.89-0.83,0.94-2.04,0.95-3.27c0.02-1.22-0.41-2.22-1.12-3.22
                            c-0.51-0.72-1.15-1.34-1.65-2.07c-0.96-1.39-1.34-3.15-1.09-4.82c0.24-1.67,1.09-3.23,2.32-4.39c0.1-0.1,0.22-0.2,0.36-0.23
                            c0.12-0.03,3.35-0.03,4.89,1.58c0.64,0.67,1.26,1.36,1.63,2.21c0.97,2.25,0.91,4.84,0.27,7.2c-0.75,2.74-3.91,5.68-6.46,6.94"></path>
                        <path fill="#CFDFB6" d="M70.08,191.34c-0.96-1.39-1.34-3.15-1.09-4.82c0.18-1.23,0.69-2.4,1.43-3.39l0.01,0
                            c0,0-1.15,2.99,0.89,6.22c1.61,2.54,3.21,5.3,1.5,8.3c0.03-0.33,0.04-0.68,0.04-1.02c0.02-1.22-0.41-2.22-1.12-3.22
                            C71.23,192.69,70.58,192.07,70.08,191.34z"></path>
                        <path fill="#348F41" d="M74.74,182.72l0.31-0.2c0.56,0.23,1.09,0.54,1.5,0.98c0.64,0.67,1.26,1.36,1.63,2.21
                            c0.97,2.25,0.91,4.84,0.27,7.2c-0.65,2.39-3.15,4.94-5.46,6.38l-0.21-0.05C80.16,192.14,74.74,182.72,74.74,182.72z"></path>
                        <path fill="#49392A" d="M71.86,199.86c0.61-0.73,0.67-1.65,0.65-2.56c-0.02-0.47-0.02-0.93-0.11-1.34
                            c-0.09-0.42-0.23-0.82-0.42-1.21c-0.4-0.78-0.95-1.45-1.59-2.16c-0.63-0.71-1.23-1.62-1.5-2.59c-0.59-1.95-0.25-4.02,0.62-5.73
                            c0.44-0.86,1-1.65,1.7-2.34c0.09-0.09,0.21-0.2,0.39-0.25c0.22-0.04,0.28-0.02,0.42-0.03c0.24,0,0.49,0,0.73,0.02
                            c0.48,0.03,0.97,0.09,1.45,0.18c0.96,0.18,1.95,0.56,2.74,1.32c0.68,0.65,1.39,1.41,1.82,2.4c0.83,1.85,0.99,3.94,0.65,5.87
                            c-0.08,0.49-0.18,0.97-0.33,1.44c-0.14,0.48-0.34,0.98-0.58,1.41c-0.48,0.89-1.08,1.67-1.75,2.38
                            c-1.36,1.38-2.95,2.53-4.72,3.24c-0.03,0.01-0.07,0-0.08-0.03c-0.01-0.03,0-0.06,0.02-0.07c0.79-0.51,1.53-1.08,2.22-1.7
                            c0.69-0.62,1.33-1.29,1.89-2.01c0.57-0.71,1.08-1.47,1.44-2.27c0.18-0.41,0.31-0.8,0.4-1.23c0.1-0.44,0.19-0.88,0.24-1.33
                            c0.22-1.78,0.15-3.6-0.49-5.24c-0.29-0.78-0.87-1.45-1.48-2.15c-0.54-0.6-1.34-1.01-2.2-1.29c-0.43-0.14-0.88-0.24-1.33-0.31
                            c-0.23-0.04-0.45-0.06-0.68-0.08c-0.28-0.02-0.31-0.06-0.49,0.1c-0.69,0.59-1.27,1.34-1.67,2.17
                            c-0.83,1.66-0.77,3.65-0.08,5.25c0.35,0.82,0.82,1.51,1.44,2.21c0.6,0.71,1.26,1.51,1.64,2.46c0.43,0.93,0.47,2.06,0.33,2.98
                            c-0.09,0.94-0.4,2.04-1.22,2.62c-0.03,0.02-0.06,0.01-0.08-0.01C71.84,199.91,71.85,199.88,71.86,199.86z"></path>
                        <path fill="#49392A" d="M74.67,192.61c-0.23-1.46-0.59-2.83-1.06-4.18c-0.47-1.34-1.02-2.65-1.72-3.86
                            c-1.37-2.44-3.32-4.51-5.89-5.95c1.46,0.26,2.85,0.96,4.02,1.9c1.19,0.94,2.16,2.15,2.91,3.45c0.74,1.32,1.27,2.74,1.58,4.2
                            C74.82,189.64,74.94,191.16,74.67,192.61z"></path>
                    </g>
                    <g style="transform-origin: 0px 0px 0px; opacity: 0.4385;" data-svg-origin="56.43000030517578 124.8800048828125" transform="matrix(1,0,0,1,-6.1487,0)">
                        <path fill="#A7C47A" d="M62.32,146.16c0.89-0.83,0.94-2.04,0.95-3.27c0.02-1.22-0.41-2.22-1.12-3.22
                            c-0.51-0.72-1.15-1.34-1.65-2.07c-0.96-1.39-1.34-3.15-1.09-4.82c0.24-1.67,1.09-3.23,2.32-4.39c0.1-0.1,0.22-0.2,0.36-0.23
                            c0.12-0.03,3.35-0.03,4.89,1.58c0.64,0.67,1.26,1.36,1.63,2.21c0.97,2.25,0.91,4.84,0.27,7.2c-0.75,2.74-3.91,5.68-6.46,6.94"></path>
                        <path fill="#CFDFB6" d="M60.51,137.6c-0.96-1.39-1.34-3.15-1.09-4.82c0.18-1.23,0.69-2.4,1.43-3.39l0.01,0
                            c0,0-1.15,2.99,0.89,6.22c1.61,2.54,3.21,5.3,1.5,8.3c0.03-0.33,0.04-0.68,0.04-1.02c0.02-1.22-0.41-2.22-1.12-3.22
                            C61.65,138.95,61.01,138.33,60.51,137.6z"></path>
                        <path fill="#348F41" d="M65.17,128.98l0.31-0.2c0.56,0.23,1.09,0.54,1.5,0.98c0.64,0.67,1.26,1.36,1.63,2.21
                            c0.97,2.25,0.91,4.84,0.27,7.2c-0.65,2.39-3.15,4.94-5.46,6.38l-0.21-0.05C70.59,138.4,65.17,128.98,65.17,128.98z"></path>
                        <path fill="#49392A" d="M62.29,146.12c0.61-0.73,0.67-1.65,0.65-2.56c-0.02-0.47-0.02-0.93-0.11-1.34
                            c-0.09-0.42-0.23-0.82-0.42-1.21c-0.4-0.78-0.95-1.45-1.59-2.16c-0.63-0.71-1.23-1.62-1.5-2.59c-0.59-1.95-0.25-4.02,0.62-5.73
                            c0.44-0.86,1-1.65,1.7-2.34c0.09-0.09,0.21-0.2,0.39-0.25c0.22-0.04,0.28-0.02,0.42-0.03c0.24,0,0.49,0,0.73,0.02
                            c0.48,0.03,0.97,0.09,1.45,0.18c0.96,0.18,1.95,0.56,2.74,1.32c0.68,0.65,1.39,1.41,1.82,2.4c0.83,1.85,0.99,3.94,0.65,5.87
                            c-0.08,0.49-0.18,0.97-0.33,1.44c-0.14,0.48-0.34,0.98-0.58,1.41c-0.48,0.89-1.08,1.67-1.75,2.38
                            c-1.36,1.38-2.95,2.53-4.72,3.24c-0.03,0.01-0.07,0-0.08-0.03c-0.01-0.03,0-0.06,0.02-0.07c0.79-0.51,1.53-1.08,2.22-1.7
                            c0.69-0.62,1.33-1.29,1.89-2.01c0.57-0.71,1.08-1.47,1.44-2.27c0.18-0.41,0.31-0.8,0.4-1.23c0.1-0.44,0.19-0.88,0.24-1.33
                            c0.22-1.78,0.15-3.6-0.49-5.24c-0.29-0.78-0.87-1.45-1.48-2.15c-0.54-0.6-1.34-1.01-2.2-1.29c-0.43-0.14-0.88-0.24-1.33-0.31
                            c-0.23-0.04-0.45-0.06-0.68-0.08c-0.28-0.02-0.31-0.06-0.49,0.1c-0.69,0.59-1.27,1.34-1.67,2.17
                            c-0.83,1.66-0.77,3.65-0.08,5.25c0.35,0.82,0.82,1.51,1.44,2.21c0.6,0.71,1.25,1.51,1.64,2.46c0.43,0.93,0.47,2.06,0.33,2.98
                            c-0.09,0.94-0.4,2.04-1.22,2.62c-0.03,0.02-0.06,0.01-0.08-0.01C62.27,146.17,62.27,146.14,62.29,146.12z"></path>
                        <path fill="#49392A" d="M65.1,138.87c-0.23-1.46-0.59-2.83-1.06-4.18c-0.47-1.34-1.02-2.65-1.72-3.86
                            c-1.37-2.44-3.32-4.51-5.89-5.95c1.46,0.26,2.85,0.96,4.02,1.9c1.19,0.94,2.16,2.15,2.91,3.45c0.74,1.32,1.27,2.74,1.58,4.2
                            C65.25,135.9,65.37,137.42,65.1,138.87z"></path>
                    </g>
                    <g style="transform-origin: 0px 0px 0px; opacity: 0.693;" data-svg-origin="85.9791030883789 184.7724609375" transform="matrix(1,0,0,1,19.3038,0)">
                        <path fill="#A7C47A" d="M86.04,189.19c2.93-0.25,4.86,1.94,5.73,2.8c0.63,0.62,1.13,1.36,1.76,1.98
                            c1.21,1.18,2.88,1.85,4.57,1.89c1.69,0.04,3.37-0.53,4.72-1.55c0.11-0.09,0.23-0.18,0.29-0.32c0.05-0.12,0.04-0.25,0.03-0.37
                            c-0.04-0.57-0.08-1.14-0.12-1.7c-0.08-1.03-0.17-2.09-0.65-3.01c-0.42-0.82-1.13-1.47-1.9-1.98c-2.05-1.34-4.62-1.72-7.05-1.48
                            C90.58,185.73,87.71,186.9,86.04,189.19"></path>
                        <path fill="#348F41" d="M93.14,193.51c1.2,1.3,2.9,2.11,4.64,2.28c1.28,0.12,2.58-0.1,3.76-0.6l0-0.01c0,0-3.29,0.42-6.11-2.41
                            c-2.22-2.23-4.65-4.52-8.08-3.53c0.34,0.05,0.69,0.13,1.04,0.21c1.24,0.28,2.16,0.96,3.01,1.91
                            C92.03,192.03,92.52,192.83,93.14,193.51z"></path>
                        <path fill="#CFDFB6" d="M102.85,191.85l0.3-0.21c0.02-0.59-0.05-1.18-0.28-1.7c-0.35-0.81-0.72-1.61-1.33-2.24
                            c-1.62-1.66-3.97-2.5-6.33-2.73c-2.4-0.23-5.66,1.15-7.87,2.75l-0.03,0.2C96.57,183.7,102.85,191.85,102.85,191.85z"></path>
                        <path fill="#49392A" d="M86.03,189.15c0.9-0.19,1.9-0.13,2.8,0.21c0.91,0.32,1.72,0.87,2.43,1.48
                            c0.36,0.31,0.68,0.62,1.02,0.95c0.34,0.35,0.64,0.7,0.93,1.04c0.56,0.69,1.14,1.26,1.86,1.72c1.41,0.93,3.26,1.35,4.99,0.9
                            c0.86-0.21,1.68-0.6,2.39-1.13c0.17-0.13,0.38-0.28,0.41-0.39c0.04-0.07-0.01-0.31-0.03-0.54l-0.17-1.35
                            c-0.12-0.9-0.25-1.78-0.57-2.53c-0.32-0.74-0.88-1.34-1.56-1.83c-1.38-0.98-3.07-1.46-4.78-1.62c-1.72-0.16-3.49,0-5.17,0.48
                            c-1.68,0.47-3.27,1.35-4.5,2.69c-0.02,0.02-0.06,0.03-0.08,0c-0.02-0.02-0.03-0.05-0.01-0.07c0.93-1.61,2.54-2.79,4.28-3.5
                            c1.76-0.71,3.68-0.98,5.58-0.86c1.9,0.13,3.82,0.76,5.36,1.97c0.77,0.6,1.46,1.41,1.78,2.39c0.34,0.96,0.34,1.92,0.36,2.82
                            l0.03,1.37l0.01,0.35c0,0.12-0.01,0.3-0.1,0.46c-0.2,0.3-0.41,0.36-0.6,0.51c-0.78,0.51-1.64,0.89-2.54,1.14
                            c-1.78,0.5-3.81,0.44-5.55-0.45c-0.88-0.42-1.64-1.13-2.22-1.85c-0.29-0.36-0.56-0.71-0.85-1.02l-0.92-0.96
                            c-1.22-1.23-2.73-2.2-4.57-2.27c-0.03,0-0.06-0.03-0.06-0.06C85.98,189.17,86,189.15,86.03,189.15z"></path>
                        <path fill="#49392A" d="M93.07,189.15c1.48-0.07,2.96,0.31,4.31,0.88c1.32,0.57,2.63,1.22,3.87,2.05
                            c0.61,0.43,1.2,0.91,1.72,1.47c0.5,0.57,0.94,1.14,1.36,1.75c0.82,1.23,1.41,2.62,1.68,4.05c0.01,0.06-0.03,0.12-0.09,0.13
                            c-0.05,0.01-0.11-0.02-0.13-0.07c-0.56-1.32-1.28-2.52-2.18-3.59c-0.44-0.53-0.92-1.07-1.4-1.54c-0.48-0.47-1.02-0.88-1.6-1.25
                            c-1.15-0.76-2.44-1.33-3.71-1.98c-1.24-0.64-2.5-1.2-3.86-1.71c-0.05-0.02-0.08-0.08-0.06-0.13
                            C92.99,189.18,93.03,189.15,93.07,189.15z"></path>
                    </g>
                    <g style="transform-origin: 0px 0px 0px; opacity: 0.3122;" data-svg-origin="64.8211441040039 162.41802978515625" transform="matrix(1,0,0,1,-18.7775,0)">
                        <path fill="#A7C47A" d="M86.9,162.49c-2.18,1.97-5.05,1.4-6.26,1.23c-0.88-0.12-1.72-0.4-2.6-0.51
                            c-1.67-0.21-3.41,0.27-4.78,1.25s-2.37,2.46-2.82,4.08c-0.04,0.14-0.07,0.29-0.04,0.42c0.03,0.12,0.12,0.22,0.2,0.31
                            c0.37,0.43,0.75,0.86,1.13,1.28c0.69,0.77,1.4,1.56,2.33,2.01c0.83,0.4,1.79,0.49,2.71,0.43c2.44-0.17,4.72-1.42,6.51-3.08
                            C85.37,167.99,86.95,165.32,86.9,162.49"></path>
                        <path fill="#348F41" d="M78.62,163.34c-1.74-0.31-3.58,0.07-5.07,0.99c-1.1,0.68-2,1.64-2.63,2.75l0,0.01
                            c0,0,2.36-2.33,6.32-1.77c3.12,0.44,6.44,0.79,8.57-2.07c-0.31,0.16-0.63,0.32-0.96,0.46c-1.16,0.53-2.3,0.54-3.56,0.3
                            C80.4,163.85,79.53,163.51,78.62,163.34z"></path>
                        <path fill="#CFDFB6" d="M71.89,170.53l-0.11,0.35c0.34,0.48,0.75,0.9,1.25,1.18c0.77,0.44,1.54,0.85,2.41,0.98
                            c2.29,0.34,4.67-0.41,6.69-1.66c2.05-1.26,3.81-4.34,4.61-6.95l-0.1-0.18C81.83,173.23,71.89,170.53,71.89,170.53z"></path>
                        <path fill="#49392A" d="M86.93,162.52c-0.61,0.69-1.43,1.25-2.35,1.53c-0.92,0.3-1.9,0.35-2.84,0.29
                            c-0.48-0.03-0.92-0.08-1.39-0.15c-0.48-0.07-0.93-0.18-1.37-0.27c-0.87-0.21-1.67-0.31-2.52-0.25c-1.68,0.11-3.41,0.9-4.52,2.3
                            c-0.56,0.69-0.97,1.49-1.22,2.34c-0.06,0.21-0.14,0.46-0.1,0.56c0.01,0.08,0.19,0.25,0.35,0.41l0.95,0.97
                            c0.64,0.64,1.28,1.26,1.98,1.67c0.7,0.4,1.51,0.53,2.35,0.51c1.69-0.06,3.33-0.7,4.79-1.6c1.47-0.91,2.78-2.11,3.83-3.5
                            c1.05-1.39,1.79-3.05,1.96-4.86c0-0.03,0.03-0.06,0.06-0.05c0.03,0,0.05,0.03,0.05,0.05c0.23,1.84-0.34,3.76-1.3,5.38
                            c-0.97,1.63-2.34,3-3.92,4.06c-1.59,1.05-3.5,1.7-5.47,1.67c-0.97-0.01-2.02-0.24-2.86-0.82c-0.85-0.56-1.43-1.32-1.99-2.03
                            l-0.85-1.07l-0.22-0.27c-0.08-0.1-0.17-0.24-0.2-0.42c-0.02-0.36,0.11-0.54,0.17-0.77c0.31-0.88,0.77-1.7,1.33-2.44
                            c1.12-1.48,2.77-2.65,4.7-3c0.95-0.2,1.99-0.09,2.88,0.13c0.45,0.11,0.88,0.22,1.3,0.3l1.32,0.21c1.72,0.25,3.51,0.1,5.01-0.95
                            c0.03-0.02,0.06-0.01,0.08,0.01C86.95,162.47,86.95,162.5,86.93,162.52z"></path>
                        <path fill="#49392A" d="M81.32,166.77c-1.14,0.95-2.54,1.54-3.96,1.9c-1.4,0.34-2.83,0.62-4.32,0.7
                            c-0.75,0.02-1.51,0-2.26-0.14c-0.74-0.15-1.43-0.34-2.14-0.57c-1.4-0.48-2.71-1.24-3.78-2.21c-0.05-0.04-0.05-0.11-0.01-0.16
                            c0.04-0.04,0.1-0.05,0.14-0.02c1.24,0.72,2.54,1.23,3.9,1.54c0.67,0.16,1.38,0.29,2.05,0.38c0.66,0.09,1.35,0.08,2.03,0.03
                            c1.37-0.09,2.75-0.41,4.15-0.66c1.38-0.24,2.72-0.55,4.11-0.97c0.05-0.02,0.11,0.01,0.13,0.07
                            C81.36,166.7,81.35,166.75,81.32,166.77z"></path>
                    </g>
                    <g style="transform-origin: 0px 0px 0px; opacity: 0.9484;" data-svg-origin="25.151147842407227 70.00804138183594" transform="matrix(1,0,0,1,44.8425,0)">
                        <path fill="#A7C47A" d="M47.23,70.08c-2.18,1.97-5.05,1.4-6.26,1.23c-0.88-0.12-1.72-0.4-2.6-0.51
                            c-1.67-0.21-3.41,0.27-4.78,1.25c-1.37,0.98-2.37,2.46-2.82,4.08c-0.04,0.14-0.07,0.29-0.04,0.42c0.03,0.12,0.12,0.22,0.2,0.31
                            c0.37,0.43,0.75,0.86,1.13,1.28c0.69,0.77,1.4,1.56,2.33,2.01c0.83,0.4,1.79,0.49,2.71,0.43c2.44-0.17,4.72-1.42,6.51-3.08
                            C45.71,75.58,47.29,72.91,47.23,70.08"></path>
                        <path fill="#348F41" d="M38.96,70.93c-1.74-0.31-3.58,0.07-5.07,0.99c-1.1,0.68-2,1.64-2.63,2.75l0,0.01
                            c0,0,2.36-2.33,6.32-1.77c3.12,0.44,6.44,0.79,8.57-2.07c-0.31,0.16-0.63,0.32-0.96,0.46c-1.16,0.53-2.3,0.54-3.56,0.3
                            C40.74,71.44,39.87,71.1,38.96,70.93z"></path>
                        <path fill="#CFDFB6" d="M32.23,78.12l-0.11,0.35c0.34,0.48,0.75,0.9,1.25,1.18c0.77,0.44,1.54,0.85,2.41,0.98
                            c2.29,0.34,4.67-0.41,6.69-1.66c2.05-1.26,3.81-4.34,4.61-6.95l-0.1-0.18C42.16,80.82,32.23,78.12,32.23,78.12z"></path>
                        <path fill="#49392A" d="M47.27,70.11c-0.61,0.69-1.43,1.25-2.35,1.53c-0.92,0.3-1.9,0.35-2.84,0.29
                            c-0.48-0.03-0.92-0.08-1.39-0.15c-0.48-0.07-0.93-0.18-1.37-0.27c-0.87-0.21-1.67-0.31-2.52-0.25c-1.68,0.11-3.41,0.9-4.52,2.3
                            c-0.56,0.69-0.97,1.49-1.22,2.34c-0.06,0.21-0.14,0.46-0.1,0.56c0.01,0.08,0.19,0.25,0.35,0.41l0.95,0.97
                            c0.64,0.64,1.28,1.26,1.98,1.67c0.7,0.4,1.51,0.53,2.35,0.51c1.69-0.06,3.33-0.7,4.79-1.6c1.47-0.91,2.78-2.11,3.83-3.5
                            c1.05-1.39,1.79-3.05,1.96-4.86c0-0.03,0.03-0.06,0.06-0.05c0.03,0,0.05,0.03,0.05,0.05c0.23,1.84-0.34,3.76-1.3,5.38
                            c-0.97,1.63-2.34,3-3.92,4.06c-1.59,1.05-3.5,1.7-5.47,1.67c-0.97-0.01-2.02-0.24-2.86-0.82c-0.85-0.56-1.43-1.32-1.99-2.03
                            l-0.85-1.07l-0.22-0.27c-0.08-0.1-0.17-0.24-0.2-0.42c-0.02-0.36,0.11-0.54,0.17-0.77c0.31-0.88,0.77-1.7,1.33-2.44
                            c1.12-1.48,2.77-2.65,4.7-3c0.95-0.2,1.99-0.09,2.88,0.13c0.45,0.11,0.88,0.22,1.3,0.3l1.32,0.21c1.72,0.25,3.51,0.1,5.01-0.95
                            c0.03-0.02,0.06-0.01,0.08,0.01C47.29,70.06,47.28,70.09,47.27,70.11z"></path>
                        <path fill="#49392A" d="M41.65,74.36c-1.14,0.95-2.54,1.54-3.96,1.9c-1.4,0.34-2.83,0.62-4.32,0.7c-0.75,0.02-1.51,0-2.26-0.14
                            c-0.74-0.15-1.43-0.34-2.14-0.57c-1.4-0.48-2.71-1.24-3.78-2.21c-0.05-0.04-0.05-0.11-0.01-0.16c0.04-0.04,0.1-0.05,0.14-0.02
                            c1.24,0.72,2.54,1.23,3.9,1.54c0.67,0.16,1.38,0.29,2.05,0.38c0.66,0.09,1.35,0.08,2.03,0.03c1.37-0.09,2.75-0.41,4.15-0.66
                            c1.38-0.24,2.72-0.55,4.11-0.97c0.05-0.02,0.11,0.01,0.13,0.07C41.7,74.29,41.68,74.34,41.65,74.36z"></path>
                    </g>
                    <g style="transform-origin: 0px 0px 0px; opacity: 0.5656;" data-svg-origin="29.001148223876953 129.06802368164062" transform="matrix(1,0,0,1,6.5588,0)">
                        <path fill="#A7C47A" d="M51.07,129.13c-2.18,1.97-5.05,1.4-6.26,1.23c-0.88-0.12-1.72-0.4-2.6-0.51
                            c-1.67-0.21-3.41,0.27-4.78,1.25c-1.37,0.98-2.37,2.46-2.82,4.08c-0.04,0.14-0.07,0.29-0.04,0.42c0.03,0.12,0.12,0.22,0.2,0.31
                            c0.37,0.43,0.75,0.86,1.13,1.28c0.69,0.77,1.4,1.56,2.33,2.01c0.83,0.4,1.79,0.49,2.71,0.43c2.44-0.17,4.72-1.42,6.51-3.08
                            C49.55,134.63,51.13,131.97,51.07,129.13"></path>
                        <path fill="#348F41" d="M42.8,129.99c-1.74-0.31-3.58,0.07-5.07,0.99c-1.1,0.68-2,1.64-2.63,2.75l0,0.01
                            c0,0,2.36-2.33,6.32-1.77c3.12,0.44,6.44,0.79,8.57-2.07c-0.31,0.16-0.63,0.32-0.96,0.46c-1.16,0.53-2.3,0.54-3.56,0.3
                            C44.58,130.49,43.71,130.15,42.8,129.99z"></path>
                        <path fill="#CFDFB6" d="M36.07,137.17l-0.11,0.35c0.34,0.48,0.75,0.9,1.25,1.18c0.77,0.44,1.54,0.85,2.41,0.98
                            c2.29,0.34,4.67-0.41,6.69-1.66c2.05-1.26,3.81-4.34,4.61-6.95l-0.1-0.18C46,139.88,36.07,137.17,36.07,137.17z"></path>
                        <path fill="#49392A" d="M51.11,129.17c-0.61,0.69-1.43,1.25-2.35,1.53c-0.92,0.3-1.9,0.35-2.84,0.29
                            c-0.48-0.03-0.92-0.08-1.39-0.15c-0.48-0.07-0.93-0.18-1.37-0.27c-0.87-0.21-1.67-0.31-2.52-0.25c-1.68,0.11-3.41,0.9-4.52,2.3
                            c-0.56,0.69-0.97,1.49-1.22,2.34c-0.06,0.21-0.14,0.46-0.1,0.56c0.01,0.08,0.19,0.25,0.35,0.41l0.95,0.97
                            c0.64,0.64,1.28,1.26,1.98,1.67c0.7,0.4,1.51,0.53,2.35,0.51c1.69-0.06,3.33-0.7,4.79-1.6c1.47-0.91,2.78-2.11,3.83-3.5
                            c1.05-1.39,1.79-3.05,1.96-4.86c0-0.03,0.03-0.06,0.06-0.05c0.03,0,0.05,0.03,0.05,0.05c0.23,1.84-0.34,3.76-1.3,5.38
                            c-0.97,1.63-2.34,3-3.92,4.06c-1.59,1.05-3.5,1.7-5.47,1.67c-0.97-0.01-2.02-0.24-2.86-0.82c-0.85-0.56-1.43-1.32-1.99-2.03
                            l-0.85-1.07l-0.22-0.27c-0.08-0.1-0.17-0.24-0.2-0.42c-0.02-0.36,0.11-0.54,0.17-0.77c0.31-0.88,0.77-1.7,1.33-2.44
                            c1.12-1.48,2.77-2.65,4.7-3c0.95-0.2,1.99-0.09,2.88,0.13c0.45,0.11,0.88,0.22,1.3,0.3l1.32,0.21c1.72,0.25,3.51,0.1,5.01-0.95
                            c0.03-0.02,0.06-0.01,0.08,0.01C51.13,129.12,51.13,129.15,51.11,129.17z"></path>
                        <path fill="#49392A" d="M45.5,133.42c-1.14,0.95-2.54,1.54-3.96,1.9c-1.4,0.34-2.83,0.62-4.32,0.7c-0.75,0.02-1.51,0-2.26-0.14
                            c-0.74-0.15-1.43-0.34-2.14-0.57c-1.4-0.48-2.71-1.24-3.78-2.21c-0.05-0.04-0.05-0.11-0.01-0.16c0.04-0.04,0.1-0.05,0.14-0.02
                            c1.24,0.72,2.54,1.23,3.9,1.54c0.67,0.16,1.38,0.29,2.05,0.38c0.66,0.09,1.35,0.08,2.03,0.03c1.37-0.09,2.75-0.41,4.15-0.66
                            c1.38-0.24,2.72-0.55,4.11-0.97c0.05-0.02,0.11,0.01,0.13,0.07C45.54,133.35,45.53,133.39,45.5,133.42z"></path>
                    </g>
                    <g style="transform-origin: 0px 0px 0px; opacity: 0.1882;" data-svg-origin="37.91999435424805 141.03330993652344" transform="matrix(1,0,0,1,-31.18,0)">
                        <path fill="#A7C47A" d="M59.53,157.78c-2.3-0.08-4.59-0.75-6.45-2.09c-0.74-0.53-1.4-1.17-1.93-1.92
                            c-0.56-0.8-1.07-1.41-1.42-2.31c-0.37-0.94-0.6-2.21-0.58-3.22c0.02-0.9,0.32-1.78,0.66-2.61c0.55-1.37,1.21-2.69,1.96-3.96
                            c0.1,1.22,0.63,2.4,1.49,3.26c0.71,0.71,1.6,1.21,2.45,1.74c1.7,1.06,3.33,2.35,4.25,4.13c0.92,1.77,1.53,3.59-0.31,6.44"></path>
                        <path fill="#A7C47A" d="M51.43,154.13c-2.34-0.24-5.48,0.44-7.64,1.55c-2.08,1.08-4.51,3.01-5.65,5.06
                            c1.4-0.06,2.82,0.19,4.12,0.73c1.09,0.45,2.09,1.11,3.17,1.59c3.62,1.63,8.09,1.2,11.33-1.1c1.31-0.93,2.64-2.52,2.78-4.51"></path>
                        <path fill="#49392A" d="M51.87,146.51c0.44,0.86,0.82,1.68,1.27,2.47c0.45,0.78,0.91,1.54,1.43,2.27
                            c1.06,1.45,2.35,2.7,3.84,3.85c0.05,0.04,0.06,0.12,0.02,0.17c-0.03,0.04-0.09,0.06-0.13,0.04c-1.85-0.56-3.47-1.81-4.67-3.35
                            c-0.6-0.77-1.1-1.63-1.43-2.55c-0.32-0.92-0.52-1.9-0.44-2.87c0-0.03,0.03-0.05,0.05-0.05
                            C51.85,146.49,51.86,146.5,51.87,146.51z"></path>
                        <path fill="#49392A" d="M44.84,159.63c1.02-0.51,2.17-0.71,3.28-0.79c1.13-0.08,2.24,0.02,3.33,0.12
                            c2.19,0.21,4.29,0.51,6.49,0.37c0.04,0,0.08,0.03,0.08,0.07c0,0.03-0.02,0.06-0.05,0.07c-1.04,0.4-2.17,0.59-3.28,0.66
                            c-1.12,0.07-2.23,0.03-3.32-0.03l-3.24-0.18c-1.07-0.06-2.12-0.08-3.23-0.06c-0.07,0-0.13-0.05-0.13-0.12
                            C44.77,159.7,44.8,159.66,44.84,159.63z"></path>
                        <path fill="#348F41" d="M39.28,160.53c0,0,1.79-0.18,5.73,0.67c3.94,0.85,9.19,1.88,13.53-1.44c0,0,0.4,2.37-4.03,3.38
                            c-4.43,1.01-8.74,0.4-10.59-0.78S40.07,160.5,39.28,160.53z"></path>
                        <path fill="#348F41" d="M49.39,149.17c0,0,2.25,5.01,6.46,6.26s4.28,0.97,4.28,0.97l-0.91,1.31c0,0-6.68-1.34-8.28-4.04
                            C49.33,150.97,49.39,149.17,49.39,149.17z"></path>
                        <path fill="#CFDFB6" d="M52.09,144.44c0,0,0.98,2.16,2.92,3.53c1.94,1.37,5.09,4.16,5.52,6.52c0.42,2.37,0,0.15,0,0.15
                            s0.7-2.96-0.88-4.63C58.07,148.34,52.7,145.29,52.09,144.44z"></path>
                        <path fill="#49392A" d="M68.73,155.39c-2.26,1.49-4.88,2.56-7.66,2.81c-1.39,0.12-2.81,0.05-4.17-0.31
                            c-1.36-0.35-2.64-0.99-3.75-1.83c-0.56-0.41-1.06-0.9-1.52-1.42c-0.46-0.53-0.82-1.1-1.21-1.65c-0.84-1.1-1.27-2.48-1.48-3.83
                            c-0.11-0.68-0.13-1.42,0.01-2.12c0.13-0.7,0.35-1.37,0.59-2c0.48-1.28,1.06-2.53,1.75-3.72c0.16-0.27,0.5-0.37,0.78-0.21
                            c0.16,0.09,0.26,0.26,0.28,0.43l0,0.03c0.08,0.72,0.32,1.42,0.71,2.03c0.39,0.61,0.89,1.1,1.52,1.54
                            c1.26,0.85,2.81,1.7,3.99,2.92c0.6,0.6,1.15,1.28,1.58,2.04c0.41,0.76,0.73,1.53,0.91,2.39c0.18,0.85,0.13,1.76-0.15,2.56
                            c-0.27,0.8-0.69,1.53-1.2,2.18c-0.02,0.03-0.06,0.03-0.08,0.01c-0.02-0.02-0.03-0.05-0.02-0.08c0.78-1.42,1.22-3.04,0.74-4.5
                            c-0.22-0.72-0.62-1.43-1.02-2.08c-0.42-0.64-0.94-1.21-1.53-1.71c-0.59-0.5-1.23-0.96-1.89-1.39c-0.66-0.43-1.38-0.8-2.09-1.3
                            c-0.71-0.49-1.4-1.15-1.84-1.94c-0.46-0.78-0.73-1.67-0.79-2.57l1.06,0.25c-0.69,1.13-1.32,2.29-1.88,3.5
                            c-0.27,0.61-0.56,1.2-0.73,1.81c-0.19,0.61-0.22,1.24-0.18,1.9c0.07,1.31,0.43,2.62,1.24,3.68c0.4,0.54,0.77,1.11,1.24,1.56
                            c0.46,0.47,1,0.86,1.56,1.19c1.12,0.68,2.37,1.09,3.63,1.36c1.26,0.26,2.56,0.37,3.86,0.3c2.61-0.13,5.18-0.9,7.68-1.9
                            c0.03-0.01,0.07,0,0.08,0.03C68.76,155.35,68.75,155.38,68.73,155.39z"></path>
                        <path fill="#49392A" d="M51.42,154.14c-1.3,0.03-2.56,0.27-3.78,0.59c-1.22,0.33-2.42,0.76-3.52,1.33
                            c-1.1,0.59-2.15,1.29-3.17,2.03c-1,0.77-1.97,1.62-2.63,2.7l-0.19-0.31c1.07-0.01,2.13,0.12,3.17,0.38
                            c1.05,0.24,2.04,0.7,2.99,1.13c1.86,0.92,3.79,1.43,5.8,1.37c1.98-0.04,3.96-0.5,5.72-1.44c1.75-0.9,3.28-2.45,3.66-4.52
                            c0.01-0.03,0.04-0.05,0.07-0.05c0.03,0,0.05,0.03,0.05,0.06c0.04,1.07-0.31,2.17-0.91,3.08c-0.59,0.93-1.43,1.71-2.34,2.31
                            c-1.83,1.21-4.05,1.85-6.25,1.82c-1.1-0.03-2.2-0.2-3.25-0.51c-1.05-0.32-2.05-0.83-2.93-1.4c-0.89-0.56-1.75-1.1-2.73-1.42
                            c-0.97-0.33-2.01-0.45-3.04-0.37c-0.11,0.01-0.21-0.08-0.22-0.19c0-0.04,0.01-0.08,0.02-0.11l0.01-0.01
                            c0.62-1.18,1.46-2.24,2.42-3.17c0.95-0.94,2.06-1.72,3.27-2.3c1.22-0.59,2.52-0.96,3.83-1.16c1.31-0.2,2.66-0.22,3.95,0.06
                            c0.03,0.01,0.05,0.04,0.05,0.07C51.47,154.12,51.45,154.14,51.42,154.14z"></path>
                    </g>
                    <g style="transform-origin: 0px 0px 0px; opacity: 0.0763;" data-svg-origin="49.288475036621094 89.27001953125" transform="matrix(1,0,0,1,-42.375,0)">
                        <path fill="#A7C47A" d="M60.25,108.19c-0.79-2.16-1.04-4.53-0.49-6.76c0.22-0.88,0.56-1.74,1.05-2.51
                            c0.53-0.82,0.9-1.52,1.61-2.19c0.73-0.69,1.83-1.38,2.77-1.75c0.84-0.32,1.77-0.37,2.67-0.37c1.47,0,2.95,0.11,4.41,0.32
                            c-1.09,0.55-1.98,1.49-2.46,2.61c-0.4,0.92-0.52,1.94-0.69,2.92c-0.34,1.97-0.92,3.97-2.22,5.49s-2.75,2.77-6.08,2.13"></path>
                        <path fill="#A7C47A" d="M60.58,99.31c-0.65-2.26-2.47-4.91-4.31-6.49c-1.78-1.52-4.49-3.05-6.81-3.33
                            c0.58,1.28,0.88,2.68,0.87,4.09c-0.01,1.18-0.24,2.36-0.28,3.54c-0.15,3.97,1.94,7.94,5.28,10.08c1.35,0.86,3.33,1.5,5.22,0.87
                            "></path>
                        <path fill="#49392A" d="M67.8,96.85c-0.63,0.73-1.25,1.4-1.81,2.11c-0.56,0.71-1.09,1.42-1.56,2.18
                            c-0.94,1.53-1.62,3.19-2.12,5c-0.02,0.07-0.09,0.1-0.15,0.09c-0.05-0.01-0.09-0.06-0.09-0.11c-0.18-1.92,0.37-3.9,1.35-5.59
                            c0.49-0.85,1.1-1.63,1.83-2.28c0.73-0.65,1.56-1.19,2.5-1.48c0.03-0.01,0.06,0.01,0.06,0.03
                            C67.82,96.82,67.82,96.84,67.8,96.85z"></path>
                        <path fill="#49392A" d="M53,95.28c0.86,0.75,1.48,1.74,1.97,2.75c0.49,1.01,0.82,2.08,1.14,3.13c0.63,2.1,1.14,4.17,2.1,6.15
                            c0.02,0.04,0,0.08-0.03,0.1c-0.03,0.01-0.06,0.01-0.09-0.02c-0.76-0.82-1.36-1.79-1.85-2.79c-0.48-1.01-0.87-2.05-1.22-3.09
                            l-1.05-3.07c-0.35-1.01-0.73-1.99-1.16-3.02c-0.03-0.06,0-0.14,0.07-0.17C52.92,95.24,52.97,95.25,53,95.28z"></path>
                        <path fill="#348F41" d="M50.08,90.46c0,0,0.84,1.59,1.54,5.56c0.7,3.97,1.72,9.22,6.43,11.99c0,0-2.05,1.26-4.65-2.47
                            c-2.6-3.73-3.66-7.95-3.26-10.11C50.54,93.29,50.41,91.18,50.08,90.46z"></path>
                        <path fill="#348F41" d="M64.41,95.55c0,0-3.8,3.97-3.36,8.34s0.71,4.33,0.71,4.33l-1.56-0.35c0,0-1.27-6.69,0.63-9.2
                            C62.72,96.17,64.41,95.55,64.41,95.55z"></path>
                        <path fill="#CFDFB6" d="M69.81,96.27c0,0-1.63,1.72-2.17,4.03c-0.54,2.31-1.93,6.29-3.97,7.57c-2.03,1.28-0.14,0.06-0.14,0.06
                            s3-0.47,3.96-2.56C68.44,103.28,69.25,97.15,69.81,96.27z"></path>
                        <path fill="#49392A" d="M65.92,115.81c-2.23-1.53-4.21-3.56-5.49-6.04c-0.63-1.24-1.1-2.59-1.28-3.98
                            c-0.18-1.39-0.07-2.82,0.28-4.16c0.17-0.67,0.44-1.32,0.74-1.94c0.32-0.63,0.71-1.18,1.07-1.75c0.71-1.19,1.82-2.1,2.99-2.81
                            c0.59-0.35,1.26-0.65,1.97-0.79c0.7-0.14,1.4-0.19,2.08-0.2c1.37-0.03,2.74,0.03,4.11,0.22c0.31,0.04,0.53,0.33,0.49,0.64
                            c-0.03,0.19-0.14,0.34-0.29,0.42l-0.02,0.01c-0.64,0.34-1.2,0.83-1.61,1.42c-0.42,0.59-0.68,1.24-0.85,1.99
                            c-0.31,1.49-0.51,3.25-1.2,4.8c-0.33,0.79-0.75,1.55-1.29,2.23c-0.55,0.67-1.14,1.25-1.87,1.75c-0.72,0.48-1.58,0.79-2.43,0.82
                            c-0.85,0.05-1.68-0.06-2.47-0.29c-0.03-0.01-0.05-0.04-0.04-0.07c0.01-0.03,0.04-0.05,0.06-0.04c1.6,0.19,3.28-0.01,4.45-1
                            c0.58-0.47,1.09-1.11,1.54-1.72c0.43-0.63,0.76-1.33,1.01-2.06c0.25-0.73,0.42-1.5,0.57-2.27c0.15-0.77,0.22-1.58,0.42-2.42
                            c0.18-0.84,0.54-1.73,1.11-2.44c0.55-0.72,1.27-1.3,2.09-1.7l0.17,1.07c-1.3-0.21-2.62-0.37-3.95-0.43
                            c-0.67-0.03-1.32-0.07-1.95,0c-0.63,0.05-1.23,0.26-1.83,0.55c-1.19,0.56-2.26,1.39-2.94,2.53c-0.35,0.58-0.74,1.13-0.98,1.73
                            c-0.26,0.6-0.42,1.24-0.52,1.89c-0.21,1.29-0.12,2.6,0.11,3.87c0.24,1.27,0.62,2.51,1.18,3.69c1.11,2.36,2.79,4.46,4.66,6.4
                            c0.02,0.02,0.02,0.06,0,0.08C65.98,115.82,65.95,115.83,65.92,115.81z"></path>
                        <path fill="#49392A" d="M60.57,99.3c-0.52-1.19-1.21-2.27-1.97-3.28c-0.77-1.01-1.61-1.96-2.55-2.76
                            c-0.96-0.79-2-1.51-3.08-2.17c-1.08-0.64-2.24-1.21-3.49-1.42l0.21-0.29c0.41,0.99,0.69,2.02,0.85,3.08
                            c0.17,1.06,0.12,2.16,0.08,3.2c-0.15,2.07,0.1,4.05,0.92,5.88c0.78,1.82,1.96,3.48,3.49,4.76c1.49,1.28,3.5,2.11,5.56,1.69
                            c0.03-0.01,0.06,0.01,0.07,0.05c0.01,0.03-0.01,0.06-0.03,0.07c-0.97,0.44-2.12,0.53-3.2,0.32c-1.08-0.2-2.12-0.68-3.02-1.3
                            c-1.81-1.24-3.24-3.05-4.04-5.11c-0.39-1.03-0.65-2.11-0.75-3.2c-0.1-1.09,0-2.21,0.2-3.24c0.19-1.04,0.36-2.04,0.29-3.07
                            c-0.06-1.02-0.34-2.04-0.8-2.95c-0.05-0.1-0.01-0.22,0.09-0.27c0.04-0.02,0.07-0.02,0.11-0.02l0.01,0
                            c1.33,0.13,2.63,0.5,3.85,1.05c1.23,0.53,2.36,1.26,3.36,2.17c1.01,0.91,1.84,1.97,2.52,3.11c0.68,1.14,1.21,2.38,1.43,3.69
                            c0.01,0.03-0.02,0.06-0.05,0.07C60.61,99.35,60.58,99.33,60.57,99.3z"></path>
                    </g>
                </g>
                <g id="gCarAnten" style="transform-origin: 0px 0px 0px;" data-svg-origin="259.5841293334961 116.97721099853516" transform="matrix(0.98517,0.17156,-0.17156,0.98517,23.91824,-42.79948)">
                    <g>
                        <g>
                            <g>
                                <g>
                                    <path fill="#C8C4BF" d="M102.96,100.63c-0.41-0.21-0.9-0.05-1.11,0.36l0,0c-0.21,0.41-0.05,0.9,0.36,1.11l6.96,3.54
                                        c0.41,0.21,0.9,0.05,1.11-0.36l0,0c0.21-0.41,0.05-0.9-0.36-1.11L102.96,100.63z"></path>
                                </g>
                                <g>
                                    <path fill="#C8C4BF" d="M105.47,95.69c-0.41-0.21-0.9-0.05-1.11,0.36l0,0c-0.21,0.41-0.05,0.9,0.36,1.11l6.96,3.54
                                        c0.41,0.21,0.9,0.05,1.11-0.36l0,0c0.21-0.41,0.05-0.9-0.36-1.11L105.47,95.69z"></path>
                                </g>
                            </g>
                            <path fill="#897F74" d="M117.65,105.9L117.65,105.9c1.23-2.43,0.26-5.4-2.17-6.63l-3.89-1.97c-0.42-0.21-0.92-0.04-1.13,0.37
                                l-3.7,7.29c-0.21,0.42-0.04,0.92,0.37,1.13l3.89,1.97C113.45,109.3,116.42,108.33,117.65,105.9z"></path>
                        </g>
                    </g>
                    <path fill="#49392A" d="M117.5,105.92c0.3-0.65,0.43-1.38,0.35-2.07c-0.07-0.69-0.33-1.35-0.68-1.89
                        c-0.36-0.55-0.82-0.99-1.31-1.35c-0.24-0.19-0.47-0.39-0.73-0.56l-0.92-0.58l-1.86-1.17l-0.93-0.58c-0.21-0.16-0.46-0.15-0.65,0
                        c-0.04,0.04-0.09,0.09-0.11,0.14l-0.13,0.24c-0.09,0.16-0.17,0.32-0.25,0.49l-0.48,0.98c-0.32,0.65-0.65,1.31-0.95,1.97
                        l-0.93,1.99l-0.46,0.99l-0.24,0.49l-0.11,0.24c-0.02,0.04-0.03,0.08-0.03,0.12c0,0.17,0.06,0.31,0.27,0.39l0.98,0.49
                        c0.65,0.33,1.3,0.67,1.94,1.02l0.96,0.52c0.3,0.15,0.61,0.28,0.93,0.37c0.65,0.18,1.34,0.25,2.03,0.16
                        C115.55,108.14,116.89,107.23,117.5,105.92z M117.66,106c-0.71,1.3-1.9,2.34-3.38,2.79c-0.74,0.21-1.54,0.27-2.31,0.11
                        c-0.39-0.07-0.76-0.2-1.13-0.36l-1-0.46c-0.66-0.31-1.32-0.63-1.97-0.96l-0.97-0.5c-0.2-0.09-0.47-0.31-0.59-0.55
                        c-0.14-0.25-0.2-0.54-0.16-0.82c0.02-0.14,0.06-0.28,0.12-0.4l0.13-0.25l0.26-0.48l0.53-0.96l1.06-1.92
                        c0.36-0.64,0.7-1.28,1.03-1.93l0.51-0.97c0.09-0.16,0.16-0.33,0.24-0.49l0.12-0.25c0.05-0.11,0.13-0.21,0.22-0.29
                        c0.33-0.37,0.95-0.44,1.37-0.22l1.02,0.41l2.05,0.81c0.34,0.14,0.68,0.25,1.03,0.42c0.38,0.18,0.76,0.38,1.07,0.67
                        c0.61,0.59,1.05,1.34,1.29,2.12C118.66,103.09,118.35,104.7,117.66,106z"></path>
                    <path fill="#A7C47A" d="M145.94,102.84c-2.53-1.87-3.91-4.29-5.42-7.18c-1.16-2.23-2.71-6.53-0.48-8.73
                        c2.6-2.57,6.3,0.11,7.32,3.31c1.99-2.35,5.04-4.73,7.55-2.07c2.39,2.53,0.44,6.22-1.28,8.43c-1.39,1.79-3.46,4.03-7.46,6.14"></path>
                    <path fill="#49392A" d="M258.11,116.57c-0.83-1.32-1.7-2.61-2.73-3.77c-1.03-1.16-2.13-2.24-3.36-3.18
                        c-1.23-0.93-2.54-1.74-3.92-2.42c-1.39-0.67-2.84-1.21-4.33-1.65c-1.49-0.42-3.02-0.72-4.57-0.95c-1.55-0.2-3.11-0.33-4.68-0.38
                        c-3.14-0.09-6.31,0.07-9.46,0.38c-6.31,0.63-12.58,1.88-18.84,3.16c-3.14,0.65-6.34,1.23-9.54,1.63
                        c-3.2,0.4-6.42,0.63-9.64,0.75c-6.44,0.24-12.87-0.03-19.27-0.45c-3.2-0.23-6.39-0.43-9.6-0.71c-1.61-0.17-3.2-0.42-4.78-0.79
                        c-1.58-0.34-3.14-0.83-4.64-1.45c-3-1.23-5.79-3.17-7.86-5.74c-2.06-2.56-3.62-5.59-4.26-8.9c-0.31-1.65-0.44-3.39,0.03-5.16
                        c0.23-0.88,0.64-1.76,1.28-2.48c0.62-0.7,1.4-1.28,2.29-1.64c0.89-0.35,1.87-0.48,2.8-0.37c0.94,0.12,1.83,0.46,2.6,0.97
                        c1.57,0.99,2.6,2.75,2.72,4.53l-1.18-0.22l0,0c0.64-1.32,1.65-2.46,2.95-3.27c1.27-0.8,3.04-1.17,4.62-0.56
                        c1.57,0.6,2.68,1.82,3.36,3.23c0.68,1.43,0.83,3,0.7,4.46c-0.13,1.48-0.57,2.88-1.17,4.2c-0.31,0.66-0.66,1.29-1.07,1.9
                        c-0.41,0.62-0.89,1.17-1.37,1.68c-1.93,2.07-4.17,3.74-6.54,5.17c-4.75,2.85-10.14,4.6-15.66,5.02
                        c-5.51,0.43-11.11-0.66-16.06-2.99c-0.22-0.11-0.32-0.37-0.21-0.6c0.1-0.22,0.36-0.31,0.58-0.22c2.47,1.01,5.04,1.75,7.66,2.16
                        c2.62,0.39,5.28,0.46,7.91,0.2c5.27-0.5,10.36-2.35,14.85-5.1c2.24-1.38,4.35-3,6.09-4.91c1.73-1.82,2.74-4.27,3.02-6.7
                        c0.12-1.21-0.01-2.43-0.48-3.46c-0.24-0.52-0.55-0.98-0.96-1.39c-0.39-0.42-0.83-0.75-1.31-0.95c-0.96-0.43-2.12-0.27-3.16,0.28
                        c-1.05,0.53-1.97,1.43-2.64,2.47l0,0c-0.15,0.31-0.52,0.44-0.83,0.29c-0.18-0.09-0.3-0.25-0.34-0.43l-0.02-0.08
                        c-0.3-1.4-1.2-2.57-2.37-3.25c-0.59-0.34-1.24-0.54-1.9-0.59c-0.65-0.07-1.31,0.03-1.91,0.27c-0.6,0.25-1.13,0.64-1.57,1.15
                        c-0.41,0.49-0.74,1.07-0.93,1.74c-0.4,1.33-0.37,2.87-0.14,4.37c0.25,1.5,0.66,3.01,1.24,4.42c0.61,1.43,1.35,2.8,2.27,4.06
                        c1.82,2.52,4.33,4.54,7.23,5.81c1.44,0.64,2.96,1.12,4.5,1.47c1.55,0.34,3.13,0.55,4.71,0.69c3.18,0.22,6.38,0.42,9.58,0.54
                        c6.39,0.25,12.79,0.34,19.15-0.09c3.18-0.21,6.34-0.54,9.49-0.97c3.15-0.44,6.26-1.06,9.37-1.76
                        c6.26-1.41,12.59-2.62,19.03-3.32c6.41-0.65,13.06-0.78,19.44,1.06c1.58,0.48,3.14,1.07,4.63,1.8c1.48,0.76,2.88,1.67,4.19,2.69
                        c1.31,1.03,2.47,2.22,3.55,3.48c1.07,1.27,1.97,2.65,2.82,4.06c0.23,0.38,0.1,0.88-0.28,1.1c-0.38,0.23-0.86,0.11-1.09-0.26
                        L258.11,116.57z"></path>
                    <g>
                        <g>
                            <g>
                                <g>
                                    <path fill="#C8C4BF" d="M102.96,100.63c-0.41-0.21-0.9-0.05-1.11,0.36l0,0c-0.21,0.41-0.05,0.9,0.36,1.11l6.96,3.54
                                        c0.41,0.21,0.9,0.05,1.11-0.36l0,0c0.21-0.41,0.05-0.9-0.36-1.11L102.96,100.63z"></path>
                                </g>
                                <g>
                                    <path fill="#C8C4BF" d="M105.47,95.69c-0.41-0.21-0.9-0.05-1.11,0.36l0,0c-0.21,0.41-0.05,0.9,0.36,1.11l6.96,3.54
                                        c0.41,0.21,0.9,0.05,1.11-0.36l0,0c0.21-0.41,0.05-0.9-0.36-1.11L105.47,95.69z"></path>
                                </g>
                            </g>
                            <path fill="#897F74" d="M117.65,105.9L117.65,105.9c1.23-2.43,0.26-5.4-2.17-6.63l-3.89-1.97c-0.42-0.21-0.92-0.04-1.13,0.37
                                l-3.7,7.29c-0.21,0.42-0.04,0.92,0.37,1.13l3.89,1.97C113.45,109.3,116.42,108.33,117.65,105.9z"></path>
                        </g>
                    </g>
                    <path fill="#49392A" d="M117.5,105.92c0.3-0.65,0.43-1.38,0.35-2.07c-0.07-0.69-0.33-1.35-0.68-1.89
                        c-0.36-0.55-0.82-0.99-1.31-1.35c-0.24-0.19-0.47-0.39-0.73-0.56l-0.92-0.58l-1.86-1.17l-0.93-0.58c-0.21-0.16-0.46-0.15-0.65,0
                        c-0.04,0.04-0.09,0.09-0.11,0.14l-0.13,0.24c-0.09,0.16-0.17,0.32-0.25,0.49l-0.48,0.98c-0.32,0.65-0.65,1.31-0.95,1.97
                        l-0.93,1.99l-0.46,0.99l-0.24,0.49l-0.11,0.24c-0.02,0.04-0.03,0.08-0.03,0.12c0,0.17,0.06,0.31,0.27,0.39l0.98,0.49
                        c0.65,0.33,1.3,0.67,1.94,1.02l0.96,0.52c0.3,0.15,0.61,0.28,0.93,0.37c0.65,0.18,1.34,0.25,2.03,0.16
                        C115.55,108.14,116.89,107.23,117.5,105.92z M117.66,106c-0.71,1.3-1.9,2.34-3.38,2.79c-0.74,0.21-1.54,0.27-2.31,0.11
                        c-0.39-0.07-0.76-0.2-1.13-0.36l-1-0.46c-0.66-0.31-1.32-0.63-1.97-0.96l-0.97-0.5c-0.2-0.09-0.47-0.31-0.59-0.55
                        c-0.14-0.25-0.2-0.54-0.16-0.82c0.02-0.14,0.06-0.28,0.12-0.4l0.13-0.25l0.26-0.48l0.53-0.96l1.06-1.92
                        c0.36-0.64,0.7-1.28,1.03-1.93l0.51-0.97c0.09-0.16,0.16-0.33,0.24-0.49l0.12-0.25c0.05-0.11,0.13-0.21,0.22-0.29
                        c0.33-0.37,0.95-0.44,1.37-0.22l1.02,0.41l2.05,0.81c0.34,0.14,0.68,0.25,1.03,0.42c0.38,0.18,0.76,0.38,1.07,0.67
                        c0.61,0.59,1.05,1.34,1.29,2.12C118.66,103.09,118.35,104.7,117.66,106z"></path>
                    <path fill="#A7C47A" d="M145.94,102.84c-2.53-1.87-3.91-4.29-5.42-7.18c-1.16-2.23-2.71-6.53-0.48-8.73
                        c2.6-2.57,6.3,0.11,7.32,3.31c1.99-2.35,5.04-4.73,7.55-2.07c2.39,2.53,0.44,6.22-1.28,8.43c-1.39,1.79-3.46,4.03-7.46,6.14"></path>
                    <path fill="#49392A" d="M258.11,116.57c-0.83-1.32-1.7-2.61-2.73-3.77c-1.03-1.16-2.13-2.24-3.36-3.18
                        c-1.23-0.93-2.54-1.74-3.92-2.42c-1.39-0.67-2.84-1.21-4.33-1.65c-1.49-0.42-3.02-0.72-4.57-0.95c-1.55-0.2-3.11-0.33-4.68-0.38
                        c-3.14-0.09-6.31,0.07-9.46,0.38c-6.31,0.63-12.58,1.88-18.84,3.16c-3.14,0.65-6.34,1.23-9.54,1.63
                        c-3.2,0.4-6.42,0.63-9.64,0.75c-6.44,0.24-12.87-0.03-19.27-0.45c-3.2-0.23-6.39-0.43-9.6-0.71c-1.61-0.17-3.2-0.42-4.78-0.79
                        c-1.58-0.34-3.14-0.83-4.64-1.45c-3-1.23-5.79-3.17-7.86-5.74c-2.06-2.56-3.62-5.59-4.26-8.9c-0.31-1.65-0.44-3.39,0.03-5.16
                        c0.23-0.88,0.64-1.76,1.28-2.48c0.62-0.7,1.4-1.28,2.29-1.64c0.89-0.35,1.87-0.48,2.8-0.37c0.94,0.12,1.83,0.46,2.6,0.97
                        c1.57,0.99,2.6,2.75,2.72,4.53l-1.18-0.22l0,0c0.64-1.32,1.65-2.46,2.95-3.27c1.27-0.8,3.04-1.17,4.62-0.56
                        c1.57,0.6,2.68,1.82,3.36,3.23c0.68,1.43,0.83,3,0.7,4.46c-0.13,1.48-0.57,2.88-1.17,4.2c-0.31,0.66-0.66,1.29-1.07,1.9
                        c-0.41,0.62-0.89,1.17-1.37,1.68c-1.93,2.07-4.17,3.74-6.54,5.17c-4.75,2.85-10.14,4.6-15.66,5.02
                        c-5.51,0.43-11.11-0.66-16.06-2.99c-0.22-0.11-0.32-0.37-0.21-0.6c0.1-0.22,0.36-0.31,0.58-0.22c2.47,1.01,5.04,1.75,7.66,2.16
                        c2.62,0.39,5.28,0.46,7.91,0.2c5.27-0.5,10.36-2.35,14.85-5.1c2.24-1.38,4.35-3,6.09-4.91c1.73-1.82,2.74-4.27,3.02-6.7
                        c0.12-1.21-0.01-2.43-0.48-3.46c-0.24-0.52-0.55-0.98-0.96-1.39c-0.39-0.42-0.83-0.75-1.31-0.95c-0.96-0.43-2.12-0.27-3.16,0.28
                        c-1.05,0.53-1.97,1.43-2.64,2.47l0,0c-0.15,0.31-0.52,0.44-0.83,0.29c-0.18-0.09-0.3-0.25-0.34-0.43l-0.02-0.08
                        c-0.3-1.4-1.2-2.57-2.37-3.25c-0.59-0.34-1.24-0.54-1.9-0.59c-0.65-0.07-1.31,0.03-1.91,0.27c-0.6,0.25-1.13,0.64-1.57,1.15
                        c-0.41,0.49-0.74,1.07-0.93,1.74c-0.4,1.33-0.37,2.87-0.14,4.37c0.25,1.5,0.66,3.01,1.24,4.42c0.61,1.43,1.35,2.8,2.27,4.06
                        c1.82,2.52,4.33,4.54,7.23,5.81c1.44,0.64,2.96,1.12,4.5,1.47c1.55,0.34,3.13,0.55,4.71,0.69c3.18,0.22,6.38,0.42,9.58,0.54
                        c6.39,0.25,12.79,0.34,19.15-0.09c3.18-0.21,6.34-0.54,9.49-0.97c3.15-0.44,6.26-1.06,9.37-1.76
                        c6.26-1.41,12.59-2.62,19.03-3.32c6.41-0.65,13.06-0.78,19.44,1.06c1.58,0.48,3.14,1.07,4.63,1.8c1.48,0.76,2.88,1.67,4.19,2.69
                        c1.31,1.03,2.47,2.22,3.55,3.48c1.07,1.27,1.97,2.65,2.82,4.06c0.23,0.38,0.1,0.88-0.28,1.1c-0.38,0.23-0.86,0.11-1.09-0.26
                        L258.11,116.57z"></path>
                </g>
            </g>
        </g>
    </g>
    </svg>